<mxfile host="65bd71144e">
    <diagram id="QrmnE8RG516ZKu6pn8rO" name="Страница 1">
        <mxGraphModel dx="494" dy="431" grid="1" gridSize="10" guides="1" tooltips="1" connect="1" arrows="1" fold="1" page="1" pageScale="1" pageWidth="827" pageHeight="1169" math="0" shadow="0">
            <root>
                <mxCell id="0"/>
                <mxCell id="1" parent="0"/>
                <mxCell id="jMJHukQKIrS0qzISfSz--9" style="edgeStyle=orthogonalEdgeStyle;rounded=0;orthogonalLoop=1;jettySize=auto;html=1;exitX=0.5;exitY=1;exitDx=0;exitDy=0;entryX=0.5;entryY=0;entryDx=0;entryDy=0;fontSize=16;" parent="1" source="jMJHukQKIrS0qzISfSz--1" target="jMJHukQKIrS0qzISfSz--3" edge="1">
                    <mxGeometry relative="1" as="geometry"/>
                </mxCell>
                <mxCell id="jMJHukQKIrS0qzISfSz--1" value="&lt;span style=&quot;font-size: 16px;&quot;&gt;Начало&lt;/span&gt;" style="rounded=1;whiteSpace=wrap;html=1;" parent="1" vertex="1">
                    <mxGeometry x="310" y="10" width="120" height="30" as="geometry"/>
                </mxCell>
                <mxCell id="jMJHukQKIrS0qzISfSz--2" value="&lt;font style=&quot;font-size: 16px;&quot;&gt;конец&lt;/font&gt;" style="rounded=1;whiteSpace=wrap;html=1;" parent="1" vertex="1">
                    <mxGeometry x="320" y="360" width="100" height="30" as="geometry"/>
                </mxCell>
                <mxCell id="jMJHukQKIrS0qzISfSz--10" style="edgeStyle=orthogonalEdgeStyle;rounded=0;orthogonalLoop=1;jettySize=auto;html=1;entryX=0.5;entryY=0;entryDx=0;entryDy=0;fontSize=16;" parent="1" source="jMJHukQKIrS0qzISfSz--3" target="jMJHukQKIrS0qzISfSz--8" edge="1">
                    <mxGeometry relative="1" as="geometry"/>
                </mxCell>
                <mxCell id="jMJHukQKIrS0qzISfSz--3" value="&lt;div style=&quot;color: rgb(212 , 212 , 212) ; background-color: rgb(30 , 30 , 30) ; font-family: &amp;#34;consolas&amp;#34; , &amp;#34;courier new&amp;#34; , monospace ; font-size: 14px ; line-height: 19px&quot;&gt;&lt;div&gt;&lt;span style=&quot;color: #9cdcfe&quot;&gt;a&lt;/span&gt; = &lt;span style=&quot;color: #4ec9b0&quot;&gt;int&lt;/span&gt;(&lt;span style=&quot;color: #dcdcaa&quot;&gt;input&lt;/span&gt;(&lt;span style=&quot;color: #ce9178&quot;&gt;'введите 1 число:'&lt;/span&gt;))&lt;/div&gt;&lt;div&gt;&lt;span style=&quot;color: #9cdcfe&quot;&gt;b&lt;/span&gt; = &lt;span style=&quot;color: #4ec9b0&quot;&gt;int&lt;/span&gt;(&lt;span style=&quot;color: #dcdcaa&quot;&gt;input&lt;/span&gt;(&lt;span style=&quot;color: #ce9178&quot;&gt;'введите 2 число:'&lt;/span&gt;))&lt;/div&gt;&lt;div&gt;&lt;span style=&quot;color: #9cdcfe&quot;&gt;c&lt;/span&gt; = &lt;span style=&quot;color: #4ec9b0&quot;&gt;int&lt;/span&gt;(&lt;span style=&quot;color: #dcdcaa&quot;&gt;input&lt;/span&gt;(&lt;span style=&quot;color: #ce9178&quot;&gt;'введите 3 число:'&lt;/span&gt;))&lt;/div&gt;&lt;div&gt;&lt;span style=&quot;color: #9cdcfe&quot;&gt;d&lt;/span&gt; = &lt;span style=&quot;color: #4ec9b0&quot;&gt;int&lt;/span&gt;(&lt;span style=&quot;color: #dcdcaa&quot;&gt;input&lt;/span&gt;(&lt;span style=&quot;color: #ce9178&quot;&gt;'введите 4 число:'&lt;/span&gt;))&lt;/div&gt;&lt;/div&gt;" style="shape=parallelogram;perimeter=parallelogramPerimeter;whiteSpace=wrap;html=1;fixedSize=1;fontSize=16;" parent="1" vertex="1">
                    <mxGeometry x="170" y="60" width="400" height="90" as="geometry"/>
                </mxCell>
                <mxCell id="jMJHukQKIrS0qzISfSz--4" value="&lt;div style=&quot;color: rgb(212 , 212 , 212) ; background-color: rgb(30 , 30 , 30) ; font-family: &amp;#34;consolas&amp;#34; , &amp;#34;courier new&amp;#34; , monospace ; font-size: 14px ; line-height: 19px&quot;&gt;&lt;div&gt;&lt;span style=&quot;color: #dcdcaa&quot;&gt;print&lt;/span&gt;(&lt;span style=&quot;color: #9cdcfe&quot;&gt;ArithmeticMean&lt;/span&gt;)&lt;/div&gt;&lt;div&gt;&lt;span style=&quot;color: #dcdcaa&quot;&gt;print&lt;/span&gt;(&lt;span style=&quot;color: #ce9178&quot;&gt;'среднее арифметическое: '&lt;/span&gt; + &lt;span style=&quot;color: #4ec9b0&quot;&gt;str&lt;/span&gt;(&lt;span style=&quot;color: #9cdcfe&quot;&gt;ArithmeticMean&lt;/span&gt;))&lt;/div&gt;&lt;br&gt;&lt;/div&gt;" style="shape=document;whiteSpace=wrap;html=1;boundedLbl=1;fontSize=16;" parent="1" vertex="1">
                    <mxGeometry x="150" y="250" width="440" height="100" as="geometry"/>
                </mxCell>
                <mxCell id="jMJHukQKIrS0qzISfSz--11" style="edgeStyle=orthogonalEdgeStyle;rounded=0;orthogonalLoop=1;jettySize=auto;html=1;entryX=0.5;entryY=0;entryDx=0;entryDy=0;fontSize=16;" parent="1" source="jMJHukQKIrS0qzISfSz--8" target="jMJHukQKIrS0qzISfSz--4" edge="1">
                    <mxGeometry relative="1" as="geometry"/>
                </mxCell>
                <mxCell id="jMJHukQKIrS0qzISfSz--8" value="ArithmeticMean = (a + b + c + d) / 4" style="rounded=0;whiteSpace=wrap;html=1;fontSize=16;" parent="1" vertex="1">
                    <mxGeometry x="187.5" y="170" width="365" height="50" as="geometry"/>
                </mxCell>
                <mxCell id="jMJHukQKIrS0qzISfSz--14" value="Задача 3.&lt;br style=&quot;font-size: 11px;&quot;&gt;&amp;nbsp;Составить блок-схему нахождения среднего арифметического из 4-х чисел." style="rounded=0;whiteSpace=wrap;html=1;fontSize=11;" parent="1" vertex="1">
                    <mxGeometry x="520" width="290" height="50" as="geometry"/>
                </mxCell>
                <mxCell id="jMJHukQKIrS0qzISfSz--17" value="" style="shape=image;aspect=fixed;image=data:image/png,iVBORw0KGgoAAAANSUhEUgAAAfgAAAIICAYAAACCUvz7AAAAAXNSR0IArs4c6QAAIABJREFUeF7snQu8V1P6/9f85yKihMit0pUQpdxSSW4hEUkSGaNQCcmlcZdGjVu5lpIwJTJUlFySJF2pKFLoggyKZnLJzPz8X+9l1rE7zjl77+93X579/T7P69WrU+f73Xutz1p7P+u5fZ7f/PTTTz8ZFUVAEVAEFAFFQBEoKAR+owq+oNZTJ6MIKAKKgCKgCFgEVMHrRlAEFAFFQBFQBAoQAVXwBbioOiVFQBFQBBQBRUAVvO4BRUARUAQUAUWgABFQBV+Ai6pTUgQUAUVAEVAEVMHrHlAEFAFFQBFQBAoQAVXwBbioOiVFQBFQBBQBRUAVvO4BRUARUAQUAUWgABFQBV+Ai6pTUgQUAUVAEVAEVMHrHlAEFAFFQBFQBAoQAVXwBbioOiVFQBFQBBQBRUAVvO4BRUARUAQUAUWgABFQBV+Ai6pTUgQUAUVAEVAEVMHrHlAEFAFFQBFQBAoQAVXwBbioOiVFQBFQBBQBRUAVvO4BRUARUAQUAUWgABFQBV+Ai6pTUgQUAUVAEVAEVMHrHlAEFAFFQBFQBAoQAVXwBbioOiVFQBFQBBQBRUAVvO4BRUARUAQUAUWgABFQBV+Ai6pTUgQUAUVAEVAEVMHrHlAEFAFFQBFQBAoQAVXwBbioOiVFQBFQBBQBRUAVvO4BRUARUAQUAUWgABFQBV+Ai6pTUgQUAUVAEVAEVMHrHlAEFAFFQBFQBAoQAVXwBbioOiVFQBFQBBQBRUAVvO4BRUARUAQUAUWgABFQBV+Ai6pTUgQUAUVAEVAEVMHrHlAEFAFFQBFQBAoQAVXwBbioOiVFQBFQBBQBRUAVvO4BRUARUAQUAUWgABFQBV+Ai6pTUgQUAUVAEVAEVMHrHlAEFAFFQBFQBAoQAVXwBbioOiVFQBFQBBQBRUAVvO4BRUAgAj/++KP56quvzP/93//Z0f33v/8169evN//+979/NdqRI0fGMoNDDjnE7L///r+6dvXq1c0f/vCHkv/ffvvtzbbbbhvLGPSiioAikDsCquBzx06/qQjkjcDHH39sFixYYK+zZMkSs2LFCvvzd999Z1avXm0VO4Ji59+bN2/O+575XqBOnTpm6623LrlMjRo1zE477VTy79NOO83+vOOOO5qjjjoq39vp9xUBRSBHBFTB5wicfk0RqAgBLG+UtPfvGTNmmIULF5rPPvvM/P3vfzdY6cUirVu3NgcddJDZbbfdDAeASpUqmW222cb8v//3/0r+LhYsdJ6KQFIIqIJPCmm9T8Ej8OKLL5pvvvnGvPXWW+Zf//qXWbZsWcnf33//fcHPP8wE8QA0atTIbLfddvZvlH2DBg1MrVq17EEA619FEVAE8kNAFXx++Om3ixiBTz75xIwaNcqg2OfMmWN++ukni4b7u4ihyWnqv/nNb+z33N/XX3+9adKkiTn55JNzup5+SREodgRUwRf7DtD5V4gAMfD333/fWuJz5841uNlJfiNu/sMPPyh6CSFw4IEHmtq1a5sjjzzS7LHHHmb33Xc3TZs23SLZL6Gh6G0UgcwgoAo+M0ulA00SgZdeesk888wz5vnnnzfffvut+c9//mM2btyY5BD0XuUgQPx+q622MlWqVDENGzY0J5xwgrnssssUL0VAESiFgCp43RJFjwCx8rVr19rY+WuvvWZmzpxpNGaevW1x2GGH2Th+ly5dzJ577mlq1qyp5XvZW0YdcYQIqIKPEEy9VHYQmD59ulm6dKkZP368WbNmjfnyyy/V5Z6d5atwpFj41OrvvPPONmHvuOOOs38qV65cIDPUaSgCwRBQBR8MJ/1UhhHYtGmTda9/+umnZtKkSWbChAlm+fLlGZ6RDj0XBPr27WvatWtn9ttvP1O1alW17nMBUb+TKQRUwWdquXSwYRBYvHixmThxonn99dfN559/bt59990wX9fPFigCKHjIeVq2bGk6dOhgDjjggAKdqU6r2BFQBV/sO6CA5g+xDAlxkMgQTx8xYkQBzU6nEhcCZOP36NHDdOzY0brxqclXUQQKAQFV8IWwikU+Byhcn3rqKUPm+6JFi8wXX3xR5Ijo9HNBgJg95XjHHHOMOfjgg02rVq1yuYzvd2A3pNbf1fv7fkE/oAjkiIAq+ByB06+ljwAZ74MHDzbTpk0racqS/qh0BIWAABS69erVs14gaHbjEpQ991JRBOJAQBV8HKjqNWNBgGQ5StiIpT/wwANm1apVsdxHL6oIeBGAYOf444837du3t1a9ds7T/ZEVBFTBZ2WlhI8Teta4XI60SYV05sYbbzRff/21beKioggkjQCx+WrVqpnTTz/dXHfddcqXn/QC6P1CI6AKPjRk+oXSCMSh3KlLf/vtt824cePMK6+8YoloVBQBSQh0797dkurAl0/dvYoiIA0BVfDSVqTIx0MWfL9+/czs2bNtb3Tley/yDSF8+pDq1K9f3xx++OHmjjvuUDId4etVbMNTBV9sKy5wvrjcP/74Y0tCM2DAAIEj1CEpAsEQGDRokO1+t9dee2m5XTDI9FMxIqAKPkZw9dL+CNx9993mhRdeMPPmzbPxdRVFIOsIEKenzI7EvEsvvTTr09HxZxgBVfAZXrysDp3Wq5S4nXXWWbYNq4oiUKgIbLfddmbs2LG21I6fVRSBJBFQBZ8k2kV+L/jfIaMhcY4Yu4oiUCwIEKMnIQ8SHVrcqigCSSCgCj4JlIv8Hv/85z/N448/bvr06WPIuOePiiJQbAg49rp77rnHnH322bafvYoiECcCquDjRLfIr71kyRLbjvXRRx81n3zySZGjodNXBH5BYI899jDnnHOO6dy5s2ncuLFCowjEgoAq+Fhgzd5Fo6xlX7dunSUCefbZZ23iHHScKoqAIrAlAlDUkpB3yimnmFtuucXsuuuuCpEiECkCquAjhTObF4tKuf/jH/+w3N10c6Ppi4oioAgEQ4AmNxyKW7RoYXbZZZdgX9JPKQI+CKiCL+ItEpViB0LiisOHDzdLly4tYkR16opAfgjsu+++pmfPnjZfRUURyBcBVfD5IpjB77skt3y546GTpX6dlxFENSqKgCIQDQIQ5XBobtOmjRLmRANpUV5FFXwRLXuUFjvlbrfeequtZ1dRBBSBeBA49dRTzUUXXWTL61QUgbAIqIIPi1iRf37x4sWmf//+tp5dRRFQBJJB4KSTTjJjxowxO+ywQzI31LsUBAKq4AtiGeOfBCQ1o0aNMg899JD55ptv4r+h3kERUAS2QIC+9J06dTJXXXWVtqrVvREIAVXwgWDK5oeicslPnjzZ9O7d26xZsyabQOioFYECQqBWrVo2Pt++ffsCmpVOJQ4EVMHHgaqQa+ar4OnDfvvtt9tmMCqKgCIgC4HzzjvPNrNRohxZ6yJpNKrgJa1GBGOJIkN+/fr1ZuDAgWbkyJFm06ZNEYxKL6EIKAJxILDjjjuabt26mWuvvVbd9nEAnPFrqoLP+AJGOfzvv//evPrqq+bCCy80a9eujfLSeq0YENh6663NnnvuaWBEKy2VK1c2NWvWDHTXDRs2GEiKypIvvvjC8HsV2QjQzOaOO+4wBxxwgGFfqCgCIKAKvkD2Qb7ueGDo2LGjee6558y///3vAkEl29OA9IS+4ggK+9hjjzXbb799yaS22mors/POO5uy+Ax4yfO7IEIzICiFyxISKvm9E/794osvmm+//db+FzwISm4UBOX4P0OGPW1pYZJUUQRUwesesBnxb7zxhqEMRyUZBLbddlvbSez3v/+9davyc7t27azyxiLnZ6lS1kHShYXeffdd8+abb9rDAnkbhHf4Gc8QP3Mo+O9//yt1agU1Lg7qxx13nPnd735XUPPSyYRDQC34cHgV1Kfp8Na1a1ezYMEC89133xXU3CRN5pBDDjF0DyMZqn79+lap01gECxzGMhR9IQqKn1APh0j2GmyHc+fOtXuNf/OzSjwIbLPNNlbBDxs2zO49leJEQBV8Rtc9H5c8FhWu1dNOO82QUKeSPwK//e1vbeyTP/zcr18/s//++9uXLBJF8mP+o0z/Cg4HNxLc/W+//bbtY0AoAOVPiEgt/WjWisPk008/bYjRF+pBMhqkCvMqquALc13LndVHH31kLr/8cjNx4sQim3n00+Xl2aRJE0sjinu9UaNGhri5N06eL99/9KOWdUUU/ldffWUPQFj7/HnnnXdsXJ/DJ10JSfLTlsP5rVuPHj0sQU6dOnXyu5B+O1MIqILP0HLlY7UzzTlz5pgjjjhCraM81nynnXYytPbEMj/qqKPMbrvtZmrUqJHHFfWrpRFgn/OHzP7PPvvMzJgxw0yfPt0sWbLE/luVfW57Bs/SrFmzzKGHHprbBfRbmUNAFXzmliz8gIl3Xn/99eaxxx4z//nPf8JfoEi/gbsdBY7V07x5c9OsWTOb1V6tWjXrilfrPJmNgUInrIRFTyLf7NmzrWUPffK6deusW7+06z+ZkWXvLpUqVTJXX321Of/88zU2n73lCz1iVfChIUv+C/lY7jNnzjRnnnmmfRGq+COAlUMC3AknnGCOPvpo07JlS6vMyXzndyrpI0B8nox8/qDssfChU8a61xJP//UhFo8niooHaG9VChcBVfAFurYkLD3zzDM22UsT6cpfZMqIqB+mkQdZ7ieffLK10qtXr24tdLXSZT8gHH6x8LHm33vvPcOBdv78+YZcE2L3qvDLXz9ySEaPHm1r5ynVVCk8BFTBF96aGtjHLr74Yps9q1I2AhDHkCBHLJ28BFe+hgtTJZsIoOyx6jdu3GgVPtb9tGnTrDtfKZfLXtPtttvOnHHGGWbo0KGWTEmlsBBQBS9wPX/88UdLPxqWpIL4Oi82yt/4W+UXBMCTFxhEMtSld+/e3ey9997WVVkW1atil30EcOWTof/+++9bSxW+B7L0UfaaqLfl+jZs2NAaBPwd9r2T/Z1SuDNQBS9wbXONuQ8ZMsQMGjTIWjAqPyOA8oZMhlI24ukkyqHksdTV/V4cu4TniWeCPBSUPMyNdEqEeEfr7X/ZA1WrVjX333+/Oeuss4pjYxTBLFXBC1pk3Iu5uMmIt8NIBz2lirHJcDB5NW3a1CYYnnjiiTZxTi0T3R0ggIeMhLxHHnnEJui99dZbNhNflf3P+4M+808++aQ9BKtkGwFV8ELWL1er/cMPPzSdOnWybGDFLryQ6tWrZy11whS4G1HskrPfXc033gTcxi5cUJ53IUuMeLnu6aT2MQr9008/tS58GrRg2a9cudL88MMPSQ1B5H14XjgU33nnnaZu3boix6iDCoaAKvhgOMX2KSyHXGuqH3zwQdOnT5+ir21HKdImE9ciCUPUrku11snqZrwuQ78sRe5V9Gw8pyizpNzLe2CIfzs639geqhwujFWPsp8wYYL9gyu/2OP0PEPPP/+87WKokk0EVMGnuG68sLEiwiojyn+gmoVylkYexShgtvvuu1tWLmrWeQmRMBcWy7iwc5a5N4FPukUbFxZZui4HMKpQXnrpJTNlyhTL/kjsvlgJoqBdxpLv0KGDLSdVyRYCquCztV42A5gMcOLtmzdvztjooxkuFjovnHPPPddmwlPqk3YmvLOunRLHMleFHn69yzoYhb9K/t/Aeie3Bea8Rx991FqyxO2LUeh6SDtpchYgfFLJDgKq4BNeK0fMkUtcePHixTbLdcSIEQmPOv3bufh6x44d7ctmn332EfWyKc997nWva9a+/z6SGIZA0cP6tnDhQuu+p9SuGBvg0LBmwIAByn7nv43FfEIVfMJLQcwdZRXW4oSsg2Q6koCKSTgIYaVjrWO116xZ0/ZRV2VZTLtgy7mWzlFIAgkOHnjMKK2DLe+1114zL7zwgvn666+TuL2Ye9BoCU4B/laRj4Aq+ATXiHh7WMud5J/x48ebG2+80dJvFoOgvP/whz/YjPj+/fvbXtbUskuJr7s1UBd8/LuxPIxdAlzYg3IUIyZOz0F73rx5ZsyYMTb7nue0WITmS5Di0B6Z51RFLgKq4OWujR3ZfffdZ/nkiyXeTqIc7ncS5yjVodRNXyLCN2mKw/MeAJI+cPFMwn9PPgy19K+//rplzisGwYt2xx13mF69ehXDdDM7R1XwQpcOVz482sSci0GwzmGb69y5s61jp8tVWG9HLjglrRRyGaN+JxwCSec94JnDokfBP/vss9aF/69//SvcoDP6afgDaNAU9lnFA6PNnOJfdFXw8WMc+g4w2pEpT0JPoQuMc3DD0/gF5U49OxZ7EjF2Ve6FvruSm5+L0S9btsyW2E2dOtWST5GgV5FUFHZyFQVRzSJfherKegmLeMdGGO2GG24IzcKZZpglKkylX0cVvMAVwoIlrucyigUOMZIhEcs7/vjjLZ0sLVpx+8UpSVt2cc5Frx0OgSTX/vvvv7dEOWTeQ/lKgqyXBhdr1x1gHelRuNnI+DRzgh+AubRo0cJ6MMKKI34K6wEIe59i/bwqeEErT+nNBRdcYGkzC1nou96qVSvbqhWiGvpSx22xq7VeyDsq3NySyMLnHl9++aVZunSpJaV69dVXbZIsCi3uve5FIwojoazxuuui5Jkr/yac+NBDD4UmxNFnM9z+DfNpVfBh0Ir5s3Q5gzULcQ9NzLeM9PJ+p3AIaXDHc4hBwcOM5fedfAYosaY6n/nod6NFIAlSHRQgzHhknc+fP99MmjTJNrZJUqJQ8n7jxZLHG3H00Ufb8kEVGQioghewDpTbnH766ZZAg9MyrmpO+n5c2H6WQNTuv7JeFN4xuPt53aHAW6VKFVs3iyueWPv+++8fe8mbWgUCNnZGhpDEXqGMDqIqlDy5NcTnybUpBPFa8/yMocIcCbuppIuAKvh08bcuPMrBVq9ebU/AYWq9/RR8ylOzhxWUOTzxlL3hmiepLo7a5SRe0mnjqfdPBoG49hIHdpQ6MXkseapk6GSHRJ1QlwxSv76L8zxSBQO977777pvWUPS+xhhV8BFtg1xeCpzmiUPDhoUyRLk75ZfL9dyLwk0pygNAGDcfc8Bqx10Hrexhhx1mGejiUOwRLZ9eRhFIDAGUIPF4EmmfeeYZW1ZHjwk/j12uAwzz7JZ1jyDvEW84zCUUVqtWzR5imjdvHmjoSYRMAg2kgD6kCj6CxcxFGUOQccopp5gPPvjAKj6XWZvvwxjBdHK+hBs7GbVt27a11LINGjSw1LwqioAisCUCxOIpqyOp9uWXX7Zc914phHcBzz/cAJBXqSSPgCr4PDEPq9z5PLE4YtFOfv/739sfw16rrKGn9VLglM+JnVyC1q1bW9Ia/h21aOJc1Ijq9YIgEOe+I9seSxclT8Y9tfOF4rJ32JJzAMdFEG9AkPXQzwRDQBV8MJwi+xQb/ayzzrKxNzY7lntaSjnfSbmHFWIa3HCEG3DLO7KafK+v31cEigWBH374wSbekYHOH34mMz2r7wbWzbVM5mcaRo0dO3YLw6ZY1jbNeaqCTxB93HEoP0cO4Y23JziMvG/lfXCrVq1qGegcEx3/VlEEFIHcEIAL429/+5uZO3euteZx4zsln2VlDxrkGOG9pEmNSjIIqILPAedc3HUk1HXt2tWsWLGihIO59HXKe4CjdGtF8ZLgYILVvt9++9kkunbt2lkFH6YCwA/2KMIVfvfQ3ysCUSAQ9V511jwKfsqUKWb58uW2bDaKZzeK+eZyDWcU1K9f3x5ggibe5XIv/c4vCKiCT2A3UAp35JFHlnSaykdhp/2QM3ZK3dq3b2+bTJBMV7169chia1G/LBNYXr2FImARiHLvklEPQQ4KniQ13PZZd9m7bULHyBkzZmgJXQLPjSr4mEEmW57YNCQ2WRZ3KOEETvY/SXTQzG677bZZnpaOXREQjQAJd3C8k4Q3efJks2bNmoJIwIMMhzlpdn28208VfLz4WhIbTuFOQaZtgec6Xdj18EK0adPGnHbaaaZ27dqRuuRzHZd+TxEodARwz1M3T+OaF1980cyZM8da81kUb/4O5FeQ4ajEh4Aq+JiwhbyG5DNaR2ZNvCEEft5+++0tEx3u+FNPPdVEmUgXpVszazjreAsbgaj3Ngl4Tz31lFXyr7zyiu05n8UEPK+SxxM4fvz4WEpqC3t3BZudKvgAOOXyoFIPDktVXOxUAYad80e8rSwhqiDeTiIdLvkoSGtywTPnyegXFQEBCES152lFO2vWLDNu3DjruseyR7JYN+/602M0wF2vEj0CquAjxhSaRjqlzZ492145i655R5vbtGlTm0jXvXt3s9tuu0WMlF5OEVAEckEAZf7xxx+b0aNH21I68nx472Qt/Oe15A8//HBL9LP11luHhiSqw1PoG2fgC6rgI1wk4mLDhw83vXv3LlHuWXnovG55XPI8cGeccYYlrlHlHuEm0UspAhEhQOIu2fVPPPGEWbBggXXZO2s+olvEfhmvku/Xr5+57bbbQuf2kKPAuzeXw0HsE0z5BqrgI1wAej6jFLPslicrHqY9/tC7neQ6FUVAEZCJAC57OtNNnTrVxuepoc+au94pefg1SCQkiVclGgRUwUeDo6GnOwrRueWzYLl7T8/83LBhQ+uSh7yGeLvjyI8IIr2MIqAIxIAAveaJx1Mv/9xzz2WqlM6r3J1hdN9995k//elPlkxLJT8EVMHnh5/9Nux0JKF9+OGHEVwtuUs4tzx/H3zwwbakD7Y9ejlra9fk1kHvpAjkiwDKceXKleaRRx6x9fKQaznlmQVjwzv/3Xff3VYJYHCo5IeAKvj88DMbN240JKO5bNY8L5fo13kBkBVPv3YOKK6+PR+mvUQnoDdTBBSBEgRQ5BgZxOSJzdN+dvPmzZlLvmNCderUsVVIjRs31hXOAwFV8B7wwmZjfvPNN9aVROw9a4ISr1y5smXZw3Lv1KmTstJlbRF1vIpAKQR4h5FsRxkd7nosYeLySNYseRJ9IcIh6VclNwRUweeh4C+88EKbNZ81QbnTqx3ymiOOOMKcffbZVtnnI2EPR/ncS7+rCBQyAlE8S5s2bbJldMTmIcZB6Wcx+bdnz57mjjvuyPv9VMj7paK5qYLPceWHDRtm+vbta7/tTVbL8XKJfg0e6KOOOsqcc845VsFrMkui8OvNFIFEEMA9/9prr5nHHnvMTJ8+3Xz22WeJ3Dffm5TmDrnuuuvMzTffnO9li/L7quBzWPZHH33UXHDBBYbs1awIDw2Jc9S0H3vssbYMrnXr1ua3v/1tzlOIwtLI+eb6RUWgCBDI9xmDAOfVV1+1LVqJy//jH/+wqGXJXY8B8tBDD1mDRCUcAqrgw+Flk+kgf4FJKkuWO4q8Xr161i1PMh2JdZopH3Lx9eOKQAYRQMm/+eabtsacxle8u7Lirnfv2L322ssy3ZF8pxIcAVXwwbGyn+Q0CXMSkiUFT1tG6ttJCqTlq2bKh1x4/bgikGEEsNiXL19uLWGS7z744INMzAYjxBH3wMsBLW/dunUzMXYJg1QFH3AVYIyCgvbhhx8O+I30P4YS56FAuUNg061bN6vcVRQBRaA4EUCxjxkzxnLY8zMUr1ly1//xj3809957r9LSBty+quADAsWpl65HPBBZsdw5/R544IG2j3ufPn0sgY1a7gEXXD+mCBQgAijzVatWmbvuustm2L/zzju2UU1W5He/+525/vrrDYl3Kv4IqIL3x8j2dCcxDfG6jAJ8NfGPuMMHD0KjRo1Mx44dDaUmNWrUSHwsekNFQBGQicDnn39uoIR13eikGy6lM+vhHuHdFlScm7/Y8o6KUsGHyUzltHvKKaeYxYsXl1juki141+q1SZMm1nLv1auXqVmzZtDnQD+nCCgCRYLA6tWrrbubUrpFixZlwl3v3r2EGqnvr127duDVCvPeD3xR4R8sOgUfdpGvvvpqM3jwYLuMkhW722dky0PvCPXsZZddZnbaaaect2BYrHK+kX5REVAEckIg32f0yy+/tO56GOPgr8+Su75Dhw5m7NixZptttskJu2L4UtEp+DCLSuOG8847L8xXUv0sbnli7scff7zp0aOHgdBGRRFQBBSBihDAkn/wwQdtGRqWvFPyWUi+u+SSS8zQoUN1gctBoKgUfJjTLnF36sWheJQuxJXwLpAtj3LHcofQJhdxD7Um4+WCnn5HEUgHgXyfW1jubr/9dqvkly1bZuvkJSt4503dbrvtbC+QY445Jh3ghd+1aBR8GOXOmrVs2dLMmjVL+PL9PDzc8vvvv78lscFyJ1teRRFQBBSBMAhAgDNixAjLePfuu+/amLxE8RofvNeh24apT3ONfr1aRaHgwyp3aFzpxiRdXEY/fZPbtm1rrrzySt3k0hdNx6cICEaApGJyjki8o05eekyedyDeBpjustiyO+6tUBQKPgyIkEDQJY4Wi27zhPl+kp/lJMup9YwzzrDc+EpikyT6ei9FoDARQLHDeIfrm/i8ZFpb56qvVKmSzSM499xzC3NRcpxVwSv4sNY7vYc3btxYQggjOQ5FEl2bNm1M//79zb777qskNjk+BPo1RUAR+AUB3nm46LHk33jjDUuMI1W8vCRVq1Y133zzjdShpjKuglfwQVH99ttvLU/7E088EfQrqXyOEyt/dthhBxtzJ8ufevdcJOzhJ5d76HcUAUUgPQTyecZpMQs1NwnHlNMhkg0exrfffvuZOXPmaP/4/205VfD/A4KYO7F36YJyr1atmmXW40BCX/dcMt7zefClY6TjUwQUgS0t8lzfEZDJoORR9uvXrxev4Jk11QD9+vXTLQB3y0/Sj2Q5LlMYBUb2KO1T6ZUsncymcuXKtl0tljsWPM1kwkoYbMJeWz+vCCgC8hDI9Zmnc+bkyZPN448/bpnj8HRKFZcztcsuu9j2uCTeFbsUrIIPs7Dnn3++PaWW5jsOc404P+vc8pTDtW7d2pxzzjmmc+fOtnWtiiKgCCgCcSJAwvGECRPMo48+ambOnGl+/PFHezuJtqEz0Fq1amUrAYpdilrBs0G2PlY/AAAgAElEQVQfe+wxm3lZurZS2sZAuR9++OG2p/tFF11kIHhQUQQUAUUgCQQg/Lr//vvN1KlTbeIdmfXSsuudcnd/DxgwwAwcODCnEGYSmCZxj6JW8CtWrLDu7jVr1iSBdeh7eA8dsNSdffbZBm/DzjvvHPpa+gVFQBFQBPJBgA50eDrJV3Jsd/lcL47ver2wlBDDzFfM5cMFp+DDxJpoowpzk0TxbtRdd93V1rqTOKL88hJXS8ekCBQHAp988okZMmSImTRpkjWM3PtWkrve++48+OCDzdy5c4tjccqYZUEp+DDKHWpDLGJEcuy9evXq1ssAv3zTpk0t+U4YCYNJmOvqZxUBRaD4EMAtv2DBAtuB7tVXXzVffPGFBUGSgnfvdDcmEgS7du1afItVyFn0Fa0mrvn27dub5cuXi110Dh3E3cmUv/TSS21yXVjlLnZyOjBFQBHILAIoeWrjH3jgAdtmVnr3Oai8qQQoRld9wVjwYSxVEi+uu+46kQ+YSxDZaqutzKGHHmq9DCQB5lIOJ3KCOihFQBHIPAKUzxGLHz16tCWW2bx5s0hL3gFNE67hw4dnHvewEygIBR9GuS9dutQccsgh5rvvvhO7IbHcGzVqZOPuZMzvuOOOYddVP68IKAKKQKwIfPXVVzaz/plnnjHvvPOOyBazzmCCP4RYPJTexSSZV/BhlDskDfR4nzZtmkhCG1fvDlFDhw4dzC233GJ22mmn0PsxDCahL65fUAQUgYJDINd3Bkr+z3/+s3nuuecMWfaSS+dq1KhhCM+i7ItFMq/gwywUNe+UmeFeQiSy1sExD/1s3759bZ9jFUVAEVAEJCMA+c29995rk+5Q+NLEGU6/+93vzK233mquuOIKaUOMbTxFo+BR6g0aNLCdkaSS2hBnh4GJ1q+dOnXSpLrYtr1eWBFQBKJCgCS7sWPHWqa7119/vSQeH9X187lO6Xd97dq1bZ/7YslpyrSCD+NWIlmN0jiJ4jbh/vvvbxPq6Ee/zTbbSByqjkkRUAQUgV8hQE4T8XgU/aJFi8SVzbkB866lqRilc8UgmVXwYZQ7JR10X5MqbLrdd9/dnHLKKQZ6RYhtVBQBRUARyBICn376qXWBUzq3du1acUqe9yxuery5NM455phjsgRvTmMteAVPYwQ6r3GyRCTG3atUqWJ7ul955ZWWbz5sa8cwh52cdol+SRFQBBQBHwR4D82aNcsMHTrUvPLKK+abb74RhRnvVbhESLLjffvEE0+YrbfeWtQYox5MJhV8GIXGafL00083dESSJF4l3qJFC1sOR4c4SuRUFAFFQBHIIgLE46mPHzVqlO3mJpHhjncslvxTTz1lm3cVshS0gqcDUvPmzcUy1nGapGcxih2eeTLoVRQBRUARyDICGzZsMH/9619tfTxlaSh5SYoe4worfo899jDz5s0r6M6cmVPwYax3XN5sNBSptPpMxgSBTdu2bW0dKQQMYVzzYXDI8stCx64IKALpIhD2XcPnIb4hHo8VD1+9JAUPmljweBsomaN5TlkSdt7prlLZd8+cgg8KIpvqxBNPNO+9955lrZO4wYi39+rVyzLWqSgCioAiUEgIEOOGHpa4/H/+8x+RU6tTp47l1efvQpRMKfgwJ6rbbrvNXHPNNWI7xe29996WZx5Cm2233bYQ95bOSRFQBIoYgU2bNtmEuyeffNIsWbJEFBLeZOu//OUv5uqrrxY1vqgGU5AKnoQ6qdmRbCxi7ccdd5y59tprzT777BNqLcMcckJdWD+sCCgCikAFCOTy7qH3B5TbsNx9+eWX9urSvKmM6fvvvzeVKlUquPXPjIIPs7nISMc1JG0jodxhUMI1T393Mji1BWzBPVM6IUVAEfgfAuQ+TZw40QwbNsy88cYb1lUv7b3MUCEXo/1tUGFeWXh3Z0bBBwWemDvWMUQLiKS6d8ZC5mb37t3NTTfdFCqpLuj89XOKgCKgCEhCAIWOt3L8+PHmo48+Eqng99xzT9uELKhHNYzBmeZaFJyC98beJZ0UUe7bb7+9tdovvfRS07Rp0zTXXe+tCCgCikBiCCxYsMDcddddVolSRifp3exAoOpq8ODBgTHJgpLPhIIPA+R2221nSO6QZLmzY3DNN2vWzLLq/fGPf1RCm8CPkX4wSQR41qDyXL9+vYFHwtUw447kmSJOWbVqVQP7okrxIhDmnQxKlKSNHDnSNqRB2cMwKk3+8Ic/mDlz5pgmTZpIG1rO4xGv4MNspN69e5v77rtPpGservkuXbqYG264oaj6Eee8M/WLiSBAQiodFpcvX25JP2bPnm2VO8lRXivL/YyS32WXXUy9evUsSdMhhxxiS4x22203U79+fZvcGobPIZFJ6k1EIPDtt9+a6667zjLIffLJJyLG5AbhDELKlml9WygiXsEHBXrZsmW2f/rXX38d9CuJfI6Nw8nw+OOPt2V7vBBVFIG0EcBKnzt3ru0A9uabb9o+3ni+chFYwbDq6YYIcyQJSzRMykISUi7z1e/kjgAWMmFUXPXS6MOZVbVq1WzdfqNGjXKfpKBvFoyCJ2ntxhtvFATtz0PhJXfAAQeYjh07WjpaqeV74oDTAcWCAK5S+mHffffd1pKiIQiH0HyZHtnnzttGq2PImy644AKr9DkAqBQmAmE8rCBAOdodd9xhaWxpK5vvvosDVfQIntZCkIJR8LjAP/vsMzFr4tyU1LzTlnDgwIGmbt26YsanAyk+BHiZTpgwwe7Fd9991wIQVbJTWTkvuPKPOuoom3PSsmVLs9VWWxUf6DrjXyGwcuVKS889ffp06zmSli9FuInWt4UgBaHgr7rqKssnLGmjOAV/8MEHW5Yker2HkbAn4zDX1s8WHwLsJ7p8wZ7oJCrl7ocmvN9UjgwYMMBWkmiM3g+xbP0+l3cVHiTi8Y5GPKm9GBTZsBn1Qa+b9Ocyr+DpVtSgQYOkcfO9Hy8xvAp0iuPFFqZTXC4PjO+A9ANFjQCxz/PPP9/2ZojScvcDlefAHbxbtWplLr/8ciV48gOtCH7v+ErImSL5TpqCZwkIZZE4mmURqeDDKLj+/fub22+/XdwaEGunZI+TILH3MBJm/mGuq58tTgQ2b95szjnnHOueTzvmWb16dTN69GibdIri10S8wtiTYd9ZfL5Tp05mxowZNi6PJS9N6DRHN9Isi0gFHxRQTn+tW7e2rQmlCcqdJjJki5JoFFTCPihBr6ufK04EoAaldBTL2dW0p40ESp2kWA7nGpdPezWiu3/Yd9e6dess4RfvcQ6haYvzNLm/eW/T7pbM+qxKphX8888/b2PbZAZLcvH89re/NTvvvLPN6u/Ro0dW94aOuwAQ4PALdfM//vEPUQqeAzD1xt6cgAKAW6cQEoERI0aYnj17lnzLhXRCXiayj3v1CO/xZ5991rYdz6pkVsHDskXNLQQdUpLr3OaE+INSIdxPWT79ZXVT67h/QYBEJtphcgiWJhyCaUJy6qmnWq4IlewjENaK93ph01Du5SV8Mg/CWQ0bNjTvv/9+ZhdGnIIPukGmTJki7mTFZiH2zhwoA4HYJmiMMei8M7vTdOCJI8DL89BDD7XJQlKF5ktY8ieffLJm10tdpBjHhRIdM2aMLaVEsJorUrp8JqkqDOcZxlAjFJxFEaXggyo5WLhOO+00M3nyZFGYo8zJlmeTfv7556LGpoMpLgR4lng+sI7TTqyrCHmeGerln376acvyGPRAXFyrWfizrVGjhg0j8e4sbw946ZLjRsTlq6Dk27dvb/cn/USyJqIUfFDwlixZYk9UsHBJEudiWrhwoTnwwAMDDy3owSbwBfWDRY0A+4kQFklCcH5LVvBuoWrVqmUmTZpkx5yUhVbUmyTmyYd9p8FqR5MX1h7eBCd+e8Hv97lO0yl4klShYSbZrnHjxrleLrXvZVLB33nnnSWlZ97Mx4pQ9EvCy3WjOJpPNw7awUrzLKS2u/TGqSHwxhtvWPa4KGhok5oEyYDQ55KAp1J8CGApP/fcc9aCd+9jLPqKlL3fez0Miu4gzDWx3Lm3y12BXpdKlKyJGAUf9MQHHe1BBx1kXeBRu/PKUvLlbSDvZ11CBiU/jz/+uDn99NOztg90vGUgUN6eLGtP5HpAjAN4Qlg09IBPO8oXYBxj9V6T5xnGO3gjaFYjCdO4567XN5angaqKskrmykrAS7LskxACnllobLMkYhR8UNAefvhhy8jlPeUF/W4cn3MWEqc/mOvWrFkT6uAR9GATx9j1mmUj4JQi7jn6Vk+cONHmVsCYyDqTSPm3v/3NHHnkkfawKWUvutl4D8FZWmNw5M/1119voJ8m5qlKPksrmN9YebZq1qwplgd+1KhRJcmA+c00uW9nSsF7SyoqyrZMDr6fm3WwMfn7pZdeMkcffXSo26uCDwVX7B8mdk3pJQk/NGSh69X8+fNLasidwuFvXka0RkURdevWzcDSJkFolEGvdiz5LIkLc2EtYcnhhfC6aLM0Fx3rL42MwhzSXn75ZducS6JkkfhGhIIPquRef/11W06zcePGCssp3OYIs7Fy3VC8RBk/1JtTp04NfZmgcw99Yf2CLwLOxcff7CnWkv7onNT5N/SZQRLUKlWqZC666CJz7bXX2oQcb+wuDQUFuQ0tirPknvcuFs/txRdfbO655x77324eLiTHmnifbX4mVirNk+K7AQv8A7m+29q1a2deeOEFcejQKIlEUHJb/ATvnzdZ0O/zcf1ehIIPOjm4gUl24EEuDV6uyrysl6D3/0q/SNxYeck4C4kXPJYeSj6olHePoN/Xz+WPAOv38ccf2wxZyGBWr16dM9ubixFS3YF7GSuENU5DwZPkyUE4q0KDjxdffNF6SBYsWGD/QIRDzTxeEsImxGnpMw+plDtU5foOyCpO0sed6zsO5U555w8//CBuiuSHSOx9Uh5QmVLw1Mt+8cUXJad3F7NzLvJcdkPpU7/LoCzrWt4XiNeyo7wD7wIvnKDitULiejHl+oB5raaKxhb2hJ7PeILiGmZM9KLmRTJv3jzDiduNLxfL15sEhIsZkqNevXqlEkO+7LLLzNChQzNrwXPYgqcernL4LlDwCL0dYIhEwXM4IxeiXr16hhI7rL6uXbvaz4VNvg2zZ4Luw9Kfy3Xv+43N7/fljTfX8YSZf673oLscVvLbb78d5naJfBb2RcJ3fuL0SNpWfGYU/MCBA23/YIny97//3SoKFbkIuJcNihjLYNWqVaZ3797mlVdeiWXQdevWNQ8++KBp06ZN4lY8VRwQc2RNHOkNPBc77bSTgaf8kksu8W1EwppWqVLFtGjRwiZBwY9BtvO+++5rs/F5yZZ282cNm2IbLx7Rjh07ipz2LbfcYsNxfsIhNG1ynMwoeLoOSTzRYT2gLFSygQDW38iRI62FGxeFq7Mg8ThhiWLJJ8m1fuyxx9qEz6wJSpqKBcIceOoOP/xwG0IJ6lHxepvAu3bt2rbSoUuXLvZaKPq4vGVZwzrp8ebiaWAfzJw5M+mh+t4Pj+1bb73l+zm8tGG9Sb4XDfmBVBV80EXH/U1HHzKcJQkvC6w07RgnaVXKHwv7By8Q3Of5hHX8ZuvNtMeNzGHivPPOS+RhJ9SAcguqFP3mktTvwQzPw5NPPmnd7zxTcJSHmYdXeaPMwYL/g5+C+vqrr77aWvoq2UAADw5VKmH2QBIzg4iJTqZZSLZLVcEHPeHgDrn11luTWLtQ98AFSEIIyT8qshHYsGGD6du3rxk/fnyi5WPOfTxo0CCrtOKOyZH5zwsoSPa/pBVz1jsW96uvvmrbQG/atCmSeTjFT7iEzPxGjRpJmrqOpRwEoFkmcXnp0qXiMKKZGGFjPwmq4/yuk+vvU1PwYeITUssmOHjcfPPN6vbLdfcl9D2UO/G8WbNmxWq5lzcd3HRketNbulWrVrHO+p///KdtUZwVBe+UL+RVDzzwgD0AYcmT14JEYb15EyDJzIekiMY2aVQ4xLr4BXZx1h7SoyCKNOmphymLTlPJp6bggy4IrFwwxEkUsnthMlORiwBueWqqsdy9mfJJjdjrNt5vv/0sV0Kc+5nDDAlqUSjGJDACH54hXJ5kKJM7QOY81nuUCt5di/tR1srhHI9OmMqXJPDQe2yJAPSwzZo1EwkLhFLSqWtTUfC8fHjZBskwHDJkiK0rlibdu3c3o0ePljYsHY8Hge+//966enH5SmB1w2I84ogjLGcCVnYcsn79eqsos2LBo2yHDRtmLrjgAptYB1vYl19+GfsBhfuyFsT841qLONa3GK9J/sojjzwibuqDBw82V155pbhxeQeUmoKHecovHsmDzstKmvBy+PDDD8Wf3qThluR4UOj33XefgRwpzoS6MHPCVe/cjsTwghxww1yfz6LgIYPJigVPdjsd5HjOeWHikmXscY/frcWZZ55pDxh4PVRkIjB9+nSbZC2R+IaafbgZpEoqCj5o/B0LmbpWaUIZEjFCde9JW5lfxjN37lwby8WNFreyCIMCLmKSMtk/cbgeqQGnMY6kOZfGx4UtULKELOjfAIsgCXY0a0py7ByyyPHBQlRLPsxOTu6zKFFyaGA3lCawYAbJq4F5kWqOpCUVBR9kklj41A8PHz48yMcT/QxWxk033ZToPfVmwRGAAY0kqrVr1wb/UoKfRLEdfPDBNumOWvkohZwDEvqSVJJhx+/YI8844wzz2GOP2bFSxobHJQ0hdEKtPEl+sOWpyEOA1sckNEsTWCOhT/fjVwhaEh71/BJX8EGbQpANTKbim2++GfWc874e5RtxJkrlPcAivgBENmTdUlYpNQ7NywClMmDAAIOrPkoSHPIOUFJS587WZP5wyJOLQMwdMhPXRCqNrcuBgzK9G2+80SbeqchDAE+cxHLkoN7ctKhrE1fwQbcO7HC0vJQmYcojpI29GMZDi1dcrtJc82VhD40q2eMwY0UlHKAh15GQVFjenDjcQEFLAi11+9A8kwiZtteBjGgaiRCX97PIolovvU5wBCSWS7OXyceC0dRP0rDiE1XwYbLncdnBACZNOHgEWUxp4y6G8bC/SKq766677HTTVhgVYe4UCK7hhx9+ONL4HJ3s4NiXOv8GDRqYGTNmWJ54XPT0BCC0IGG8tNl94oknzN57710Mj0ym5kieBvTD0gRmTMLJfpJGC9lEFbwfAN7fczKS5mZs27atefnll8NMQz+bIAJ0eSJ0ghWLApWgMPymTyXJuHHjbEJgVNK+fXvz3HPPRXW5SK9DfsDYsWPNCSecYJvCUAMP37yUAxnvHcqyHnrooUjnrReLBgESMuNqEJXrCOmTQr2+RElUwXs7elUEBoxjQXh+kwSUB5/EOmKmKvIQYG+RJBXkJC1p9BxE6IJGVj3lbVEIXgGIfSQdcBybHO74Rx991JYI0haW5ClJwjg5hFDB06FDB3XVS1ocY2xuDXuGQ7wUIYdj9uzZNrG3Igmq/6KcV6IKPmipQM+ePW2rSEkSpsGApHEXy1hILiPhhcNhloSXA+WWWIydO3eOZOjQvqKgJCp4PAvksdCNi9InyuKkCUqedr8k+Gp9vKzVkdh4jGeYfJJ+/fr5gkUtPzwqSUmiCj5IkgEA8OBTHytJoBl95513JA1Jx+JBYPny5VZxZK11r2snedRRR5nJkydH8vDT4RB6XmkKHgpaeODxhvXp08eWwEoLw7nQDjXLlO1xWFKRhQCVFyTTShLK5UjQ9GsPG0QHRjmvxBQ8ipuHxi87lR7dvOzIgpYkWvsuaTV+PRYOhFjA0loKB0WNUjkSzqgNz1eIUZJoJ0HBO4VJWdycOXNsGIIOjBzieSdIGGN5eNOPnJwbP8bNfNdLvx8OAYk18XQqpOyT8E5FkrSbPjEFH7SjDi9qEnAkCYtGQpCKXARuu+02W1cuWWH4oUeyzrRp0/J2C9MECSIdCVig4Dm84MKkNO6rr76yoZRFixZZOCSMsbx1wRqjRp8cCRVZCGy//fZm48aNYgYFYRUHa1qI+wn5A0l1MkxMwQedFCUzaTFalbcwnTp1sk0pVOQiAFc1h0PJCsMPPTityT3p2rWr30cr/D11uZR7QfGZtqDg6b/O2uy5555mzJgx5sILLxTJK14aK8bOYWTSpEmRkhGlvSaFcH88XfQwkCIobMJPQfJogurCKOaWiILHevf2ZK5o4DSdoMmMFOEUz0bCpagiEwES7EiK+vzzzzOt4HlGyCOA/MYvlFXRStBwhoxeFH3aQrY8PO9nnXWWYZ3wLEiLn5aHkVsDcJRIupX22qZ5/6efftpgeEk60NMRMUhyOGPmj1+8Pgp8E1HwQeMOJLEdeOCBohJvoEckZhjE9RLFgug1wiNA3gbEJLyQpSVthZkNDzxWPAo+SAOL8q799ddfG+LHaSeFsh7dunUzI0eOtEOlxJREJEkv5YrWxyl4KhLOPffcMEupn40ZAaowCOXCfSFF8FDxLvLLkg+qD6OYVyIKPuhAYa+jdaOkF8Chhx5q3njjjUROW0Fx0s9tiQBMcIWU7XzSSScZLJRcOerT7r7lFCOkQzTUgcyG8kUSkTiAZe0QRtkuYcOk4qb6fPsjwB6CeAxGRCnCvqeMT1LORiIKPkiCHUqd1rC48ySJZs9LWo1fj4V986c//cnWfSOSDoe5IseLAoVIr/RcBB563IXEu9MQp+Bp3AKZDULcHYKbLHpZXHlfGu0+01i/rNxz0KBB4ojHrrrqKkPCr58E0Yl+1wjy+0QUPA0lcD1WJGRE4lZcvHhxkHEn9hncnWRsqshEgFKrxo0bm5UrVxaEcncoX3TRRdablUuJFi8PklVh9ktDUOI0bpk3b579m/K4U045pSS3JmsWPHkD9CL3K4FKA+tiviclsRAR0UFSirBXaJzkp++SSrSLXcEHPalIJCrhwCHJBSRlE0saBwmZKHgS7ApJmBMlczVq1MhpWjDj4VpGkvZq0M2OuDuJdRzcqcmndC/pceQEXBlfYi14D1SrVi2qS+p1IkKARLsJEyZEdLX8L0My5ksvvWSTfv0kqG70u05Fv49dwQdl7gEUMtU3bdqUz3wi/S4bB/ecilwEUBwokELjKSD+fuedd+bMrU/JDgluaSh4QgvE3nfccUczePBgc91111nlnjXL3e162vlOnz5dPXkCXwPUnlN5Qqc2CQKl+cSJE22+iZ8E1Y1+10lVwVMaw4neT6TFU8iEJGGiWbNmfkPX36eIAK5TDmGSDoZRwEFCF+7tZcuWmW233Tb0JefPn29L5ZKKeTvGOg4mHIxJFKRLHJ3t3nvvvcxa7wCPAiHp0c/tGnqR9At5I/DRRx9ZrgIJJaFuMnfffbch/8RPgupGv+ukpuDDnFCktbjk5UhjDG02kc/2iv+7uE5PPvnkEgWfVTdwaaRcohpd4XBDhpV169ZZYpmkLGfHc4FbnvAAB2S6Lw4cOFCMdRUWQ7cGlMgxp1zyIcLeUz8fDgEO9nQolNTGG91B3kkQCaMjg1zvV++Rn2J8IwYdPFm/tWrVMryUpAgPtbSMfinYSBoHbl9oT1EsWIySEm6iwAnrkVayQbxg3vtRKkdSGPjE+IiX3BJlCEkVXq/69eubJUuWGFzbWXXLu4kxL5Q7FT75kA9FsRf0GmUj0L9/f8uvIEU4CJL0i07zk6A60u865f0+1hh80CQC3IlkH0oRHuRRo0aZ8847T8qQdBylECALdfXq1YZaa8qXILyAcZByubffftt+2ksokYSSi2ORsMKnTJli6GYYRphvy5YtbZ/qJOYOSc8111xjbrzxRktDS/wfitcsK3jeA+QRULLYsGHDMPDrZxNEgPyIo48+OpF9HnRa7Jkg9fCZVvBBwSCZKEgv3aDXy/dz0GtiFcKhrSIPAZQ7nZu6d+9uzjzzTJvIxYuYh2XDhg22DvWOO+6wFpejhZQ3i2AjYg60f+3Ro0ewL3g+BT5J1cI3aNDAlpJhteBxwAOGFyGJw0VoYAJ+gUMLCYJ0L1PrPSBoKXyMBDs8XFIS7YAAylq4KNKW1C14iYxE2lwm7W1Z9v1RFljtuEypEUeB8OKFRpiSMNYNNzEPOjStt956q43N/fOf/8ysomF+WI9z5841VapUCbUwJLvR/CJuK5p4O2yCXbp0sVgTE3XlpXHfOxQgIT+M14QsbfaUimwEpJXLwfuAEeInQb3cftcp7/exKvggg6J+mVidpDpmSnw6dOgQZPj6mQQRWLFihbVkoQ4mb8OJa0lKBzVaxsJRjReGAwCKESuMv73KJiuWpUtey6XhEU1d6O2AxyMOcVYtWcwkpGLxYrn06dNHlDUVZu4Ob+ZCgiDMZCryEUCZSmoIRmgN0ra0uRNiVfBBTifS6pixkiDdyZVgRP6jkL0RYpFjSZFMg9KqSDljTZ599tmWGnX//fe3fO6wEaJ4oEplbeNSeHEg6xQOSjRsqRbcADVr1jQwfsUhKEHqfmmlzPgo6TvyyCNFdYMMO293aDnssMNsDgGhHxX5CJCgTZhISrnsDjvsYF577TXf3JkgOjIf9GNT8FhPlStX9h3buHHjbCxVSvaz0lL6LlniH0Cx0Yjos88+20K5l6XoXQtGTtDEgXv16mVdrDxIZLbi3kfRw4CXBSveKXgOnHSZwyIPKswPFra42rMyNjxdPMMcrEiyI5tZUiw0KFbuc+wfXs7QjYZNbAx7L/18dAg4xkQStiUIzwPPBa56P9m8ebNNFI5DYlPwQQdLQhRtJKXE6s455xxLs4mLVyVdBDj0wQoFLzs9zsMKCggLloZBkOHgneH/yCy/+uqrbSIlB1FEyv4rb454Iv7617+aSy65JBQM0C3PnDkz1Hcq+rA32Qw6TnIcSKyjTSZWL96SLBycvHP0zql69ermnnvuMWeccUZkmOmF4keAkB0dJR977LH4bxbgDhwUeV4vv/zyAJ+O7yOxKfigp5KuXbuasWPHxjfDkFfmwKFxt5CgxfBxlASJW9deexHqp5kAACAASURBVG3O+RnO+kU5UrJy8cUXW4Y1/o37GnpkLM6FCxdmwm0P/eULL7wQqo0soYrhw4dHukK8vKj1veWWW8yVV15pE+vgIZg6dWomDkulwXAKnr+ZEy9lv57ekQKqF4sEAd7deJGkCIm/VMD4CYZMrq2h/a4dm4L3u7H7fdOmTUvqloN+J67P8YDzAiWeqJIeAq4MjgxwJFfr2muZ8TOUrygiDnC48KGDRdG7rPxPP/1UtPXpvA+HHnpo4MXhgEQ1QZSCgifeiULHeifBiSxmZ7ln0YJnL+AdwepyYZ4oMZNwrbhrrtOeI82Z2rVrJ+YZpicDCcFpSiwKPmjiACcX+LZzcb/GARoP+dq1a82uu+4ax+X1mgEQIH5Lm1Nqj3H3Ri0oSZQSPeRx6e2yyy7WbU/sjtg8FRQk7Lj6eUnKCsVDTI9GMkEtTMJNhDiiiou7Q9Pjjz9uOQhYI7KXowwDRL3mZV3Pa7WT6Uxojj1XyC1hISAi1luoNf0c0AnJ5WoQRL3v9thjD7Nq1SprSPhJUJ3pd53Sv49FwQcdBK5RktqkLAiKnUQulfQQQMHiVoaZLi7hgeMlR7wV9zV9EBA8B1R14KJ1ZXWSFDxjJgEMQhk8X0GExDziyd99912Qj/t+hjHgBYFABxxxi1KGGNUBwncAEX3AKbntt9/ecipwWFGu+YjATfEyKPhPPvlEhBXP8/H++++bevXqpYZILAqehz3Iw4JrNBeGrjjQwjq67LLLRHEaxzFPqdfkkIcywqrGoxPnoc9rwVDmRUgGK/eII44oic/DxnbvvffaRDxEAu0t4+algcud2HcQ4RANjWdU7XTxuIENDTUgE2rbtq356quvRLxQg+ABhqwlzzvK4Oabb7YHliBWVpDr62fSReCKK66wbZalHMxJ+qNs10/iCp/EouD9JuN+L4l9iAceBUNzD5XkEYDoiK5waZW5UO9MyRcd0HCtccDAmwPBDErAseGl+eJwSYMoVyoBggjlgJTK5Usk5e7Ny8ol7cFLcN99921xAAoyprQ+wxx4zvlDfJRQELkEqtzTWpHo70teyIknnihGwdOkiL4maUnkCp4XIBa8X5kZ7lAoRiEekSBkMVIyFcTzIGG8hTQGlCnc8TQqicqVHBYfZ9UTn6eEjpcE1iqC2x437uTJky2RRpzehYrG7RQUyYKUpzVr1sx3mvSchvAn337Z3JvWyWCB5UvXOGLvWO/OKvYdjIAPwCdAySR7TVtBC1iQiIeAXoGX3st0GfEtQl0OLgU6K/rlPTBedI/f50Ld3BgTuYJnAEHcDSQy1a5dWwzBDQQirgtZWBD18/khQA01meG4kdO0kJkFDxgJbFi9ZKDj0eHBQ1HStequu+6yfztJerzuBUB5Ke2M/axPxkd8GU+EezZzWS3ug+WOReK6xeGqT3r+Qcde+kXJvzkQ0ZiIev24iEWCjk8/Fx8CvMuhiZUgGI54z/woa4PozFzmk5qCf+utt8xBBx2Uy5hj+Q7uWRK8VJJFAL6E3r1725r3tCzj8maMK5cEPLKrOYnjlcLDQBY75VQ0vkmLgZFDBzHwvffe23fByC0ZOnRoXgqeOD6MgngPyJ2BU0DaenmBcCEF/o9kSmqS6VgZtmGPL7j6AXEIUGkCQZYU4Tn1Y0XMlIIPkvKPRSGJLYomJWHrheNaFCkbM4lxQKNKcxgpma9lKQl6zuOORkG4+DwubzjYiUGT8Z+0JYtFPWjQIENSkV/dNgdX3NL5tM6FjApPwJo1a2ypHm5H6QoeqmwOaNS3Y0z4hQ2T2O96j3AI5PKO5V3+l7/8JdyNYvw0uV284yoSniXvoTSq4URuwQddEGKuvJwkCC9IYqzwlqski8CQIUMywRzo6ufvvvtuc9xxx5W4eAkvkNFO6RpxNPZ/EoqPPUtjFywVrOqKhCYwxOHDKnj3wqH9K3XvuLWZP2xheF4kibeunXHus88+Nq+jVatWvgcgSfPQseSPAFTDffv2TfzQXd7I0S10WPSToLrT7zpbGCk/RWx6BKHd4wVIIhNuTglCUgZuV15kKskhwF7hBUzNuXTxKhAsWBrZHHPMMTahh8Q7rOTRo0ebefPmJdLRCgVPDTcHC79Q14YNG2y+C+MM87hzDxr1vPnmm/b7eC1YL2lcEW5tKHnk0EN+AhaT38FH+p4rpvFFqdxgtMNj5fpMpI0jPBFU5/gl0GEgRO1lityCDwImp3+Yo3BxShDIQyivgHRHJTkEiE01adIkEzzw3ocTxUfyDJY8p3Nob3lBcWAhEQ0qXBLR4hRi8NwTFzRUsX4CMQ6JR2G8CyQbkmhIMyhyDzjY0LY3zDX8xhXF71kbEufgkYfLgJek38s0ivvqNWQiQH4XOSNxMGHmMmNKSymVi4tvvqIxRa7gebH50WhyssJaptmHBKEGmrGgbFSSQQDlhNvq/vvvD2VVJjO64HfZa6+9LDkPDzEldszr448/toqfAywZtBwI4nLds3fpO03JaUWCZUtpWxjlXKdOHXvwpVac3ujMkWc3zDWCI+n/ydKHLMoYUejkR8BBHqQ9tf9d9BNZRwCirAMOOMBAXStBKLkl5wxvX0WSCQs+yCBxGbZs2dIQG5QgvKQZi9/BRMJYC2UM9G+mbAm3bxi3sbT5O+KURo0a2WQu3MPsIw66eCjIMaCcDIlLMVL65ZdsR+IRtLJBsUaZEkIjAx/B5YmSj3MefmtLYqHD8NJLL7X9BDiEFDK/uh8m+vtfI8Aep5UxB20JguFIaS0htcwr+CCAfvHFF4ZaRWrhJQiWiZQ+whLwSGIMEBxxyINpLctS2hVMpjlc+s2bN7cndhT9E088YXuMo/AhgYqa9hb3NMq3IuIWDhokxwU5ZDAn6v85mOBWZPzdunVLTbkzHsrbUOa4XkmgwnpXN3yWn5x4xw798Lhx4+K9ScCrQwwFQRTlmklLpC76INY7E6R+mLpAkn4kCJaKlIx+CXgkMQZY4bp06SImESbKOaNomRshiPr161uFjquebnWEJHAdurKYIArXb2zbbLONrVGviGaZ3IAgtet4JBg/L8ejjjrKPqvkpnAoT0q8ipufoTC+4IILrNsVJjo/cp+kxqn3kYsA7/Sg/RringU5XhzuHTNmklZ8pAoemsAgD9+rr75qXx4ShBcIlgoJREEkymzPIPcr1M/AOUACV5ZoToOuhatLpzshbvvu3bvb0ztzpY6cZhhUbRCqClu6VtYYuC4HCg4Q5T1/xOnJe/FLPGLseLQ4iOD6ptoF9r4oDiJB8SOWTvY+1jqHEhS7WutB0dPPgQDvdMJKUoRKoSBJ3EE4ZMLMKVIFH/TGtJrkpSdBeHFgnSgvdbKrQaMS1/UpaFw42RHmdzenkHBxk2tAC1qy7lFe0N6S8AYjHK51x5udKw7ci+uSKArlb1lCqRuWMNzxpcWrPEnaI15I3fx7771nTjrpJBvLzHVs5R1IvP/vDs2UtdHZj6Q5wjdY61GXDeW3qvrtrCCAQiV0FeW+zWfueMQI3yUtkSr4oNbt9ddfb0taJAgWT9Z6WUvALd8xYHGOHz/eXkbKQ5jvnCpSZuwzvEQkulFTzr8pFyXTHkY6kg1zbZDhFDSUvxyaymqYROkQyrq8vBeuwZigtMVqZix8nkMDv4vSgvdyCnBPkhLZD5QXEmdXUQSiQIDnAK+yBIEgityRpCVSBR+E5IYJdu7cWUwNPCVAYTraBT3EJL2QWbsfhCmzZs0qaOVeek144ZBJSzyZpi1k+qLsVq1aZfBq8SeXzF/HOEcyD8Q3xP1LC+Q0EPOUVbnivt+iRQsDJS2xQoh7aOfsJGoFDykNZDStW7e2VjuVLOqGz9pTnOx4w757q1atats8SxCIsWgOlbREquCDDp5ezLgMJQhxSVfGJGE8xTAGHlTcsbiqC9l6L28tndUKwxXlXsS6UaAoevjuSUD0KtSgGJG1TzKdy3j33p+yRJRpWV22UKzE3nEjnn766falSPwSUpt8xeVYcH1+5qULbwAlbij1OFpk5jtm/X5hIEClFj0Tgj4/cc66TZs2W3ShjPNe3munouCxMFauXJnUHMu9j0tOIuFJJTkEeOBQRnh8JDx8yc385zs5hUp8HqIWlDrWM4ceGOOIgT/44INmzpw5NikuqPXMdUmQI7Zfuh0q4QCy7GfMmPGr6aJ8e/ToYbnbycjn3tTN+yXkBcGNaxOSoOsdrHscqEmgU2s9CHr6mXwQoFSOEk8J75iGDRua999/P5/p5PTdSBV8EBcKdcFQe5aV7JPTDPL4Ei8ZXq5SOPHzmEqmvso+Ie7qmrNkavARDNYbg+ZyWLVY1xDWEDJCUK54uYhL03EvqJBshxInsc8rYE4MkHr80kKHPFz7NGihnA9l/K9//SvwwaKssTFHwhHU3pN7QEWBcsMHXUX9XBQI4CmiP4QEBU8SN/kvZeXHRDHX8q4RmYLHygBIvzI5yoRwzQW1SmKd/G9+Y0aMGGHdhSrxIlCa3IVsbdzGEvZBvDMPfnXIXEhApU8DtbNYv7SiJXGOOnda6rqE0LJwc54BYu18HmvcK3A9YKU7cc/qjTfeaMvhWCMS/vh3EPEeVBgr1yN+T1kbZbCUBmK1460hHINXIekXXJB56GcKEwFYGElukyA8K+TBUBmSpESm4IMOmhggsREJAuhkcnuTiSSMq1DH4D1JkxAG4YuE07UUvFF+/IEEihIfelqjpPF0EEvs2bOnjaGzb8ur/EDRYimTJEfczys33HCDrV5xmPNZvGlkyterV8/Mnz/fJsCSCxBEXL0/48FjQCIRyZMc4FHqLv7uxusy9YNcWz+jCOSLAC2Oy8pHyfe6uX5/6dKlBkrrJCVxBT979mwbb5Qg1Nhi6WBlqCSDgFMudDdDaakF/wvuTmHyP1jz7EtK3xo3bmxDGmBF4hseJyx7chgQr3eEf6NIKXUr7Y4nea9Dhw4ln8fihtCG+DsHBkh5iL+7UFtFhy++i5eBgwgHj7Zt25bE/Ut7azTensyzpXfZEgE4JkgazbX8NGo8g5LdRHnfxBX8xIkTA7PGRTnRsq5FjJBNAKmGSjIIOOWB8nr++ee3UFDJjCBbd9l9991tAxtK66gRBz/KOt944w3bgnLRokVWOZemviWWD2Oklx6TWD6HBaeA6TDHGuAlmDJlirXe6RZXlmJ3HfH4m3GQzAfTHIQ4eAxUiWdrXxXDaGfOnGkPtN98803q0+X5wJgkyTRJiUzBQyjAS8aPeYoMXywGCUI8hBebtolNfjVIboQC1WuBJj8K+Xd0NerVqlWzJDkoVtc9jUY9I0eONND+kiXP8+c8IljYcHHzO6d8qYF3bWVJxoPaFtY4rkNLy4ULF5ZLnYsHgUMDVj5WER4G5y2Qj2L6IwySgJz+KAtrBJA7sa9JHE1bOBiTcDpw4MBEhxKZgg+aZHf77bcbaEolCNnDL7zwgm8vbQljLbQxcNDD/VysmfRh1tMpaMhh4LMmOxjaWSxvDta8yEgm4rBKDbtTJrjQ4aB3cT9IdCDXQc477zzLWof1TaZxr169bOc7p7TdNcj+payVBD3c8bvsskuYoUf62bI8C6U9B+BBqSFzIYTBe4mDDfuMP66bnzeMgFFCySJJgXhMOECBi7aPjnT5Er8YMW/IlEjsTls4cHOYhrkySYlMwQcdtCSaWsf8RY2iSrIIwMVO+RTlYJpoFxx7FBrKCBpZrAG3d1FcYMr/8beraKHMjuQ6XjBY6nitUNKwCOJqp5KBEBXdrpxyd9n4uDdvvvlmmzSHskvLDc8YHZWvS9gjB4EDC4mEH3zwgeUOoLSPP7hm+ZwzOlxCIpg4D4fXona5D2DkKgsoGSTxkNwCiLk4GPl5J4Ovon4yCQSoO4f7gY6IEoRk7oJX8KVLddIEngf45ZdfNrVq1UpzGEV5bxr8EAMmnqyJdsG3gDcWTgY8veexDFDWKCdwxW1PvI+Me6z3qVOnWssUNz4HAjwAsOjxb1z4/HHhNdzwKHZeRnF0ccO65l4cUpzC5P/4Qykdf+DI4OBHWRG1w2vXrrWZ/fwf8+Og4vX8eA8efodFPy+Ay/xnRcDa5TaAGx6MQw45xJITgbda+MH3bRqfZN+QJ8IBUIIUhYKHmhPXoAShHIlEJO0kl/xq8KKFVhXXsHuJ+r2ckx+l/DuiJGGKo3YdRe9ob6mZ5zmjVIh6YOJ/4AsH/k033WTL47DisXBwZ5OMR3ydRDtIaXK1Vr0Z+F5l6ZQw1jSKGoXN/2FlkfwHsyXd67DAnXudAwh/Su8L73WTXiFwgcOBrn10xIRHn5JAROPsSa9GxfejHTNGhPNOpT26glfwPABYHJDLSJCDDjrIuvNKE4JIGFuhj4G9QLwY1jTcrarcc19x51aG4IbEOqxMt6fJtqf0jZp6ck7wWOF2RonSwpb9z4uHLH2s/KiE9eQeKGiymHnZYnUTPkBJ0tSG3AHnRvfeNyt7gXkQIvjzn/9sD0z8USKfqHZQ/tfBK0T4iX0mQcignzBhgvUMJSWJxuBJgOFl8swzzyQ1vwrvwymcF44+lMkvBy9xHkAyuQnb8LNKbgh4XxgkirVr185a4646hBg2rm9i7yhdLE547kk+g3EOxZ/PM0AyG5nKlNjhFXCMe/zM7zjIoeB5/nG/cyDh59KWeOn6+dzQSO5bzIMxgzlWPS1vUfZp5SokN/Ns3AlvEZwr8+bNEzFgEmMJneXzrIWdSGQKPkirWD5DiQ2EGxKE5BksHJX0EHCdywiVlGXNpTcyuXcurUBQMk7JOzcxSWEcnMgixjIvHadG4aKUSgvf58Xoyl45ELi4Of+Hax0ljSudDH3+vX79+i3a0GbFAo9yhV05IwcrQiCOG0CVfZQoh7+WpM6lcEa4fJjwM8ntG5EpeNxwEMdUJLzMSeApq6NVbsPP71uc7rAyVNJFgDgsiV80VylG5RAU/dJKnO+RP0JmPL+jth3rHBe9Uzh4qXBTUmLnFZ5FXJfQBfMzrnSEhCQUtisx42cS21D0rA2fR5z1rev1M6oOb3IgzjzzTKvkyWvw680RdO31c7khIEnBk/BKWTahnKQkMgWPe44XTEVCViPuQ+oT0xYeSF5+UOeqpIsASgK3Loc/mNlUaRirGHDlobj5w89knkNUA+87xDf0dOAF5newxvIurWjwlpB8RNIdzyMK3ZXHOU+KV4m7n51F6nWv63r9rOCdoudvkkchclIFn+67RRV8RE8nCTR+mbeSFDwvTSwdVfDpPoDeu7vMb5LCsBhd+VyWy+i8LlqvknSudPYhlh6cDLDDQSqD8sYypxSLZDli52TKOwY7MAuSsQ2GLoOYQ4FT9F73PBnt0DWjjMhm92Id0atBzgZLaCSsMyRD9CInoVHd9AkBX8ZtVMFH9BTzYvDLDkTBU5ZDco8Eoa5VFbyElfh5DGxFkh7Ji6DEi3pnJGsK3qvIS/9MbJzENhQ5We+46zgYY6HzWfe31xosrdD9lDu/5xmDpIZ4OYk9WPl0i2vevLl1w8NBT1iEQwWfJxEPbntq4vmZ/4vo1SBngyU0EsdVwPriklUFnxDwquB/hUBkLvogS6gKPghKxf0ZQj1YrSihxx57zCoiYvQuRhx3prV7GTslWlrJlf69Wy1csY4lDmVKYhtJbDR3oa4cNjiUe64uWz+lzjjAjrg6LZCfeuopG0tHadNfHqsdemD6vpNEB8MdhwDK4yADQdHz/3S84nO0kIVkxh0uintX5jZ71pqkKhS9SjoIqAWf4DFdFXw6mzyLd2VbEhcmJo/liaInaxtF76xi5zWKwsL3WtpeBjPv4+Gy1YmFw2yG2xsLnCQ2lDs5KBxOcKXzc67KPOx6gQmW4rhx42w7WZQ5Y6U3+3PPPWczulH6NKsBS7wEUL/iSSA5FgUEnS1ZvghZ83xuwIABVuFzrSgwDjuvrH+ePeXCgGrFp7OaquBVwaez8/SuFSJQlqVO0wgUPnzO1F3zh/puXPlYr/lYm2SfY8WSbY6C5+eqVataOlJ4yVF+1DvDfkjduIQXNhY2VSCPPPKI5WJ3/eHBgRgwJDaMnSx5eP/5N1Y98yJnpm/fvpbWFqx33nlnc+6559pe81A3czihFA6saRDluOB12wZHgD1CLgUloK6LX/Bv6yejQEAVvCr4KPaRXiNGBEpvUdcVjPiyV8GjvFBEjnSFpDKn9F0ZE3+jxFHWJLbxAsYi5w+udaxdLFw+gyL0SxyNcdpbXNphwJxgoyNHAQX/0UcfmU2bNpV81sXxYamDvQ63OzS2KGkOADRocb0XsM7xPrhmLCh1mAXJrCc+Dwbcj4MVlLdDhgyxeDtRq77i1WctOCByiDrrrLOS2ip6Hw8CquBVwesDIRyBsqx5CRZ03LB5H03ofEkI/etf/2oWLFhQopS9Y3CHGOL/uOaJ/5MZ37p1a+u2R4i7Y9UjKHwU+d/+9reShDrHzobHAtpbShdd+SsZ+XSDfPHFF0v6zyf4+ogb7siv7/Yo4Q/+qCSPgCr4BJ9QjcEnv8EL4Y5eBV8I8wkyBzdnEgzp107SG81Y8F4g5VnPKOgHHnjA9nvHE9GnTx/7b+fNQEkTZnBCMiMNOVxCnauEQTlRroeCp1kNlj3Xxt1/33332YMG8fsEXx9BYBP1GafgYe9Muk2oKCBSHIwq+IieUC2TS3EXF+CtS2exF4PFzjIyb5LmsLRxsdO3wSlnv2UGI0o/ifkScqBdLN3OYKJD+P3ChQtLOOrd9ehCN3HiRPv7su7F/2O5Q8NKbgKKnlauMLbB842L3yUpanndL6vk9iztZcl/UEkeAVXwESn4oEQ3Wgef/CbP6h2DlIZldW5ljRtGuWnTptmKAbgAUJxhMthJrKO0EP55XPIk1nEdr7U/cOBA2xDFK5TUEXcne748BY1SJxGxW7dupmfPntb9z0GEAwjdIeEvcK8Sjc3/jK5T8PXq1RPTk7yQnpcgc1EFH5GChzWLhJKKRF30QbakfqbYEFixYoVtDIPlzXPkOq05iz6owkSxw55GzBylC10q4v1+v379bMKdVzgMtG/f3pbEeS14Z5XzWRebx4XPc37ppZfaMjqUPmOm/SuJfVQzuKS9YlvH0vN1Cp6ETnIoVJJHQBV8RAqeTF4ykFXBJ7+JC+mOxWC1o0SXL19umy7RWZGktXxc2ygS6vCJ01OOhfsctzsKu7SghFHwpUMe1NCfffbZocZx8MEHm/79+9s6elz3HFQGDx5syV0IC4TxPhTSHvbOBZx5L5K7oJI8AqrgI1LwQbrJqQWf/AbXO8pBgEcNsp7777/fZsSjBFH27hHM9VHEqoaW9pprrrE1/MTLXYlc6dmTUMeBonT5H+55lHTQeL+z6on107SJRD7IfwjVLVmyxHokcNsXewtgFDy48n5USR6BLCn4sppC5YtYZFS1kGKUbklZenDSFHyTJk1s8ouf5yFfkPX7xYsApWjUqr/99tvmjjvusH8jZSnzMAre6z4nK/7ZZ5+1VLi03D3ttNMsF0BZ12PP4zlA6ZQWvkdMPeg4OEx4GQBx/0N9S8yZa0DAc/fdd5c0vHH3C3r9Qtg1YARlsUt0LIQ5ZWUOeJVhc3TPXNrj9msXS2iLypcoJTIFH2RQxPpOOukk+xKSIDCSQfGpLFMSVqOwxkBcGkKa4cOH23asq1evjpTu1dW8oyyHDRtmE984TFAeN2HChHIPEdS3o+BJyPMKljaEOLjYXevYMIrYtbVFuZOIR8Y9uQD0j2c8XBfGwWJz25O7ACaUO6okiwDPHUnddKmUIAWv4AH5jDPOsI0wJIgqeAmrUDhjwD1N/BtrmoYtlLp5Y91Bk+WCIOIUfNOmTW3sHRY+XO80loHRz+v6916PenY+z973igsfQFWLxwEJo+Bx+TN/p+g5NNOCFi52+PlXrVplevfubUMTxVI/79YeK5JDlUqyCEhT8J06daqQDyHzFrwq+GQ3uN4tGQQoF6MlK+VtcMNjMXjj6l53elQjQpFCs0tyHE1jUKBYzpTFVaSciZlDugKBTWlhzIMGDbIxfCTMgaQsngIUe7t27WzGfYsWLSwmcOYTqqAc0I3TW0MfFT4SruMwOfHEE20ypUqyCKiCNyZRF70q+GQ3uN4tPgSwkMk7oe6cunLKw/JNlgs7Wqx1PAVYz9dee63tFhdEKVNK17lz5zJvB9c8Bwfc9PmWu6HgOIhwqLjwwgsNNfiU1fH/HDKI2VM+xpj5v3zvFxa/uD/vFDzlivfcc0/ct9Prl0JAFbwqeI3B62shFAIoIyx1/mCF0ojFK/mUu4UZCEoYlzxJc4QCunTpYmP9flnwKFxoZimXK084sAQ9LFQ0ZqfgnQInPNCjRw/7B0VP45uHH37YUvGSFOg39jD4SPgs8ycGD954MVSSRUAVfJEreF525ANQM6yiCPghgNVJ3TdWp2vNGiZO7Xd9v987i5B9S806ypGfb731VutWD2K9cw1c+WPGjCn3dlDctm3b1sbyoxYUXp06dezYoXBlzIQ0sHI5MLmyOsaZ9RI7VwNPMx+IhFSSReDvf/+7Ie4d5LlIYmRFEYPn9I5bUYrw0gZ4FUWgNAIob5qz0JmNdqk0ZkkzC9xZhCTUUWNO3Tnsd9DMUoIa5EXGNaCw5eVXnkDKQjKsi5NHvTM4lFCaykGje/fu1gsBriQn0shmzpw5lgY367F5xk/DHrgPvA1+osZTr1c2Ahhv7GMpQgkpDJPlSUEk2RGzJHYoRVTBS1kJWeMgkxziGBQpfedRQI5CNogijWM2ru6cDnF33nmnPXBQdvrhhx+W3M7Po8A1DjjgANt0pqzEOC7ENTiEU3oXhzjXPdeGxpVe6Y5djwx7EtLIuKeOOS2so5g386xVq5Zl+Iu6vjmK8RX6NaQp+EcffdQeagtawaNQy0vwSWPDqYJPA3WZ98RqhBRj1KhRhoeRsi8/hZnkTFzmPLF3mr1cddVVk8YxhAAAIABJREFUthQtTHIa19hqq61sgiDu8rK8FigmmO322muvksNNnDhwv5o1a9paefj0IcyiZp4e6hDvQBLDuMPMM8l1Ke9ejPm6666z/AIqySMgTcGPHz++Qo9CQVjw0hQ81hBEISrFjQCMhkOGDLHtT4k9S4wBo5Bp8HLTTTdZ4pyDDjrIbNy4MVRymqufxyuB+7giITMfyts4Ewe9XgQUO0Q80O62adPGHrBIlKKsDrIc8h7iPGhE/QRQPUAi4W677Rb1pfV6ARBg30CZLEWKQsET14NdSIr4JT5IGaeOI3oEODHj5qZ8i4cP5eEUTpxKLexMXCwahT5//nwbn6b2ncNI2JwAp+Cp2ycWX5Y4HNatW2djx19//XWsitXNz2HPQYakO17Ou+66q10TrDEONyTkSfOslMbQzefkk082EydODLvc+vmIEJBEqsaU2AvsiSQl8Tp4Jlde7C/Jibt7qYJPA/X077ly5UpbvkQCHSVaUmO9Ll6NdUvo4NRTTzVkZVcUy6sIXafg8VZQh16RQLfLfUjISxIfl0xYu3Ztm69z0UUX2dp83PbMnbFTyeDeI9LK61zt/8iRI03Xrl3T3+xFOgJpCh6qdj+vWdRLVfQKnhdmRRnFUQOu10sXAdy8hIkuu+yyEstUcnzXKWSY4PB+MX6Y0RxjXVg0mSsWOoltVAb4CeVsZP8mqeAZk8sPYKwk4pGcSyc8SH0Yy7nnnmufW4h5JLnt3XrVr1/fcmxwSFFJB4HTTz/dMkxKkTT2adEreBY/DeClbLpiGgdxdmLKKErnRnUepaQVWFDcXS01FK/NmjWz+SJY3rkmnDmrlxK79957z3cYcOujrFCkST4rpb18ZKHT7Y4yW+LzzJ9mPmT7038eb4NX0nqmnYInsY4EO5X0ENh5552t10eKpLEnI1Xw3hhmRaAefPDBNpYoRdIAXsrci2EcKANeuEOHDt2CUjYLc8fiJtmNxDoStuhIhRWf74Fk9913N4QpKlWq5AsDrHdg5xR8Ws8LVj3jRdHThhZ3J1hgKdMkh+RI9w7KFx9fUMr5AAp+zz33tNjibVBJDwFJoeAkD8dexCNV8EGXkhcG5T1SBDITJaKQshrRjgMrFepVYu289LPGjga9Kwpsl112sYlnjoEu37gz7WLxaFTUKtkpSzLuseIhwEkz+dDrtqeED54CyupIxEO5U0tP+AX64Fw9HPnuvipVqpixY8faMIpKeghQWskzI0UICcJdkbSogjfGluFUxM2d9KLo/aJBgPgbDxY9yR0felrWZ9gZOVIbMvyvvPJKW59/zDHH2FarUVgDKCJc24cffnigoWE1kwUcNms/0MUDfqh0WAWFz8GcpDuw4dBD+SDUvfAYeA9z7rAS1/qzXgisgrDxUSKnkh4CDz74oE3OlCIFoeCDuuhx90lqvqAKXspjEM04iMfSMQ3FSIlXeb3Ro7lbPFdBeWG9UwpH/BnGOmLOUSkoyG5o8kKTmiDyyCOPWGY7aSVqLuOeahhyEyglRF555RVzyy23WNpbxozE6bZnvQ455BAzadIks+OOOwaBVD8TIwJYy35VIjHe/leXJsTm2jAned9ULHhqWYlTSRGaXkBJqpJ9BFDuWL2EgByfeRYVfNWqVW23OPJVSCTDGsnXLe9dXRQjL8GgB228IChPXJ9RHTKi2m3OesZVT+Ooq6++2pLL4LZ/6aWXLHHO8uXLYw0v8A6hhA9GPpX0EWjZsqWZNWtW+gP53wjSCgOrgjfG7LHHHrZZh0q2EcBSI/kKQpQsKnWnqFgFLGvq3skCPvbYYy0hT9T5AxDJwAUQVM4//3xr9UtT8G78LqmK0jQOeK1btzY05kHRsydoZkM+ARJFLoHLCcBYwWNAlzwVGQiwJhiSUgT9gp5JWiJX8EHc9DxwWCY09JAguNTmzp1r6tatK2E4OoYcEMBaJxY7aNCgEkpTqYqovOm5Eiv+nj17tn1GmBPlViSNRe1ihskOrvegQlObffbZp8TlHfR7SX7OHZLAEAVPbo1LeCPcQZkhrIUu4TKfsaHgW7VqZQ89NJVRkYEAYTmqTSCwkiBUeyxbtszUqFEj8eFEruCDzIBsXOhq33zzzSAfj/0zJByRqXzYYYfFfi+9QTwIoKggP6FJirPOsqrgyR2gXp/ac14KNIZx3PhRoocCnDFjRqhLQgyFJSxRvJS3zppH4XOQQbGDJf+Poj/vvPOs2z6fsAeeAtr1KpmNrN2AXkG/oGckCHoF/YKeSVpSUfDffvutrWWNq990WBC32WYby4p13HHHhf2qfl4AAosXLzbt27cvyZYXMKSchoAyotkK3iQOJySOPf/887G5xPFcOZd10AHDCQ99rGv8koVDFLhiYXMApF4eDgCobseNG2fzG1x8Hgz8vCRY7fwhbMJ307DKgq5VsX4OvUIuBod9CVJQCj6Iix7QKRsgXipFiNkFTTiSMmYdh7HWbdOmTUvCPX4vaMmYUVp1//33G2LdKHboZJlfXEoUa5aXYBCyG4cbbnoOwi68FtfYolwnl2nPNWE3A+MOHTrYW3DAIQQyYsSIQC1pUe5UNEDhC5eAijwE0CvoFylyySWXWF2XBvFOKhY8wFPCkEbhf3mLTqyOcjmVbCFAkhhMb64UKgsKx4uw96Fv3ry5rU1HceBiJIseiWtOWLaENsJ0uGIs1HrDDZ+PezvJXeZc9y4+j5LG40OraKwrSgYh/eElDP7kc3gNFfczLtYLL7zQZuVrnXuSKxjuXqpbfsErNQUPCQnNAKQILjcpIQMpmEgfB0qdxMisV0CgcFBC1GxTigYTWvfu3e2hxUvuEvV6cG3qc8NyppMwBMFMXAePqOdZ1vVQ9mTY89xDTMOhatOmTbaJT+/evS0tMOIIkvg84QmY81S5J7FCud8DD5M7HOd+lei+iSGblkchNQUvrS88L9YFCxZEt6p6pdgRwAJ74IEHMmNJlgWIawcLiQyKhsMKjWBIsItTuTMWlBYtNYlFhxWyx6kzzqqS92bbk+UMdwLJeNCbkpxF9QJ17awHbH+sDfkRKvIRoCnTwoULxQyUBLu08rtSU/DEvmgDKUmy+rKShGFSY3n33XcNLm2s3Ky4istT8JCjwJVPCRr86oSKksgl4ACB29nR34ZZOzLpSQKkfC/ug0iYcYX5rDc8glVOaRXuXQ49eFVIvmNd6OkOcY5KNhBII9ZdETIkATdu3DgV8FJT8MxW2kKQ2IQLTkU+AoMHD7bkJUgSyjAuRLAk+/fvb2677TbrFoaBa926dYnMyfWGJ5GvcuXKoaaIZUuegGs5WwiHY5eMRxIdhyyISdQdH2pbpP7hKVOmiGv0k+azkaqCJ9GFE7IUueGGG2xbURXZCEBHe/bZZ5eQtGRZwdPNjbgvljQ5Ka7GPIk5OTc1deGOwz3oyuM16du3r81IR9J8iQUdc5DPOUwoIaQMzmXbB/mufiZ9BHh/k1ciRRo0aGA9QWlJLAo+aKmctMUopBdVWhsqifsSI23Xrp1le8uq0EAGi3Hy5Mk2PkdznKCNX6Kas7NYaZACnmGFgwlkOWl2mAs75qCfp5c7pXMkO6pkBwFpXuG0jcZYFHzQ7QAL1FFHHRX044l8bsOGDYakGxW5CEBFiSt76dKlcgdZwcicYsXFTSIXZVkkeCV9YHEJfiSQkeQXVlDstGmFDS/LeRBlzXvbbbe13pS2bduGhUU/nxICvBekcRPAlwBrYloSi4IPasEzaWknLsoreGmpyEWAXgbUL69YsULuIH0UPK5gFCNdyOhdDrkNCWtJius5TwlPmKYz3jG+9dZbNtkxiZBCktjQzY9KH1rAqmQDAToHUvYoSUgCxluXlsSi4MNMpkmTJmbRokVhvhLrZ+EAp92kilwECsGCx2KmxI82rC1atDBr1qxJLY598cUXm3vuuceWzYUVEvTIpXnttdfCflXs5zE6YLwj+5myOZVsIIC1zEFZikCJnHZHu9gUfFArXhopAfSgdIfS7Fkpj8mvx0EMnn0DMUwWpX79+rZJCaVXuO9ghUOppOXmRkHTYW3rrbcODSfPOdb/VVddFfq7Er/gPIqULlLVIM3DKBEzKWOSxmAngTwtNgUfdNFh+WFhpEiajQGkYCB9HJDAnHnmmTZBDclKBrerF4dUhXp3ktRoukTIAUnLzQ2RCxStuXa7IlQCs11W6YJL73fWiYqGJ598UvqjoOP7HwLSOpQyrCuuuCLn0FdUCxubgg9qwRN/pMOTezlENbFcrwN9JbW92iUqVwTj/x57i5aqrndAVhQ85CnsqyVLlthkIJQIXQzTHj8EL6+//npeCUo0arr33nszn1HvLPYHH3zQ9OjRI/7NrHeIBAF6v0MUlQtpUyQDKOMivJ/ocZKmxKbgg05KWu9exp0m81BQ3Ir9c45JDas3Lcs37BrQlhivA5UjJASRRS9h7GSMf/DBB2bXXXcNO6WSzxNeIG7NC1bCnHKdiFPwxE6VvS5XFJP/HofmAw44IPkbl3NHvGFQ1OIRTlNSV/D0ZYbG74svvkgThy3uTVaxpE53YoARNJAvv/yy5AWcdPZ5GBhQGM41D+Up8fbPPvvMll+hVCUoQ8a3atUqQ9w5H6E3AMQ3EuaU6zxINCSxjjVSyQ4CWMq0/JYiHHY5dKSdpJm6gmdB6tSpU9K9ScoCpe02lYKD5HGQ/T18+HDRCsVZhJzoJ06caIlhODwSYkBQhhL2Gs05mjZtmtdyU/ZH61ky67MqrBdc9BAPqWQDAZ4hwl+SpFatWvbQnLaIUPDSEu1YFEhUiE2qyEUANyodviTF3Uqj5fjeL7roIjNs2DCzceNGSwtLWZxT8GkjjFKD7IYx5iOOsAfXZFYFRTF06FDTq1evrE6h6MbNwbJNmzai5k1OigSPgggFD7d4LiU6ca7ozTffHLpPdpzj0WuXjQCc9Fhbzi0swRr2jhQFv+eee1p3PKWXZP/TV1ySGxsFTyVLrmQ33vkScqP+V+p6+D1HsFg+88wz1tOikg0EqHbo3LmzqMFKSLADEBEKnoHwYEmyxKgNfvrppw2c1CpyEYB5kFIzSuekuLu9aHFwJS4NpzmlaOwradztKHgyxskcj0J69+5tSXykeCjCzKlhw4Y2AZJDmYp8BKi+4vl3JbNSRizF0BCj4IndSVokEv94IWsmrZRHpuxx/Pjjj+bcc8+1Ncs8VFIeLDfaAw880Lz88svWQ0UzGdc9UZoFT2Y/44xCICCCW59ESEnzDDI3mu6wRrmw+gW5vn4mWgRIhmTNSGiTIhIIbhwWYhT87bffbvtiSxKaf6Rd5iAJD6ljoQYWPnT6qKfFBufFxjWTgYMahjh3eEXpSVR4jBd2vajaWlLV8Mc//tE20pE437L2sePlJxHyxBNPlLrVdVylEKDMGqImSYIHC+pnCSJGweNqPfXUU813330nARc7hrRb/YkBIgMDofyMrPpNmzalPlpXGodnAX5s4tLNmjVLnZe6ImDwMET57HHoIpkwC+Vmbr1g45s/f77SVKf+BAUfgMSW43gTO3XqFHwSMX5SjILHeoBffPXq1TFON9ylYUZatmxZuC/pp1NBgBg8deYkSKUtKIw99tjDxnLr1atnmxeRdCMtfODFCQsWyztK7nUONxdeeKEYlsry9gVzJ9cGVk1K5FSygwCVTjCPShGee6pI9t13XxFDEqPgeUHT45t6XEkya9Ys2+1LRT4CWMq4wefNm2cHm5Z7mFKrvn37mttuu83yOxCTW7t2bWrjCbJyKDkSlqKMPRODJzyxYMECGzqResDhUENb2EmTJpnq1asHgUs/IwABejnQblmSULZLZ0WSxiWIGAUPGDBhwWctSbBAXEawpHHpWMpG4P333zfHHHOMwUWcFsMdlLS4piG3Yf9gyUpWcCCJkqNhB7S1Ucrzzz9vQ2+shVQFT/ki1ru0Uqso16EQrwVvQ1SVH1HhIyn+bp/rnwQ9dVjvxColCa4WWnvqyV7SqlQ8FlxkuOvpG48kscWda3urrbaydLQ0ksFFT4avxPK90ghiudObPo4mS9TY33333aKqHFzcHRzwthBCiTI8kZ2nJZsjxTsEuQ2EZJKECgxJSZqiFLyzJCQtWNWqVa3rrlWrVpKGpWOpAAEUOhUQuIdhjkui7twphxNOOMGW7FG+h2uepK0sCOP/8MMPzV577RX5cOG3YC0Id3GftEIn3om5UASENuRt8JyrZAeBmTNnljzfkkaNp0oSba44BU/r2FGjRklaMzNkyBBxJXyiABI4GJQIHedw43311VexKxVnEeKSpkvc6NGjLd0puSVZkDgVPPOfNm2addXDWpmER8UPc9dUhna9hx56qN/H9ffCEIB10fVzkDK0o48+2nrtJIk4Bc8L8qSTTpKEkW3CIS35TxRAQgeDkv/oo48sexxUsUgc1qNT7jBqjR071sbbqcCgIiSO+8UBN3NgvHExuIEDdfEw+iFOySet7J3lTrcviH2kZDvHsaaFfE1KMN966y1RU5TmngcccQqecjlaaRIPlCS8/PJtpylpPsU0FsposKZx2+M6j0OpUB7DfSpVqmRoN0xiZhZi724foPho2bzjjjvGujWId4ONIyRK+gDEPJkjXQjxKKhkDwEaNdGtDYmi6sORHIVBwr1D2L/8qVy5snn99ddNkyZNwlwm9s+KU/AbNmywFjwMRZLkggsuMCNGjJA0JB1LCASIAxP6ueWWW2y2eJRKnhpqmhNR706cmf1Ly1SsYgnMekFg4iUHSVDcTZ8Il5xzzjnWZZ80tTDrQRIhSZDE3mEaVMkeAvRNeOihh+z6RaHg80EA5U7cnXp8knvj8oDlOkZxCp6JnH/++ba0SJLASb9y5crYX4CS5lyIY8HKpnRt0aJFW7DeOWWDEgij/Pl83bp1DS0r6aIGex0KJMw1JOAcRx18efMCG7x01DHjUYlDvOtI0hP3rFOnji2HU/rpOBBP5prktEAeRRkqB+u0Kx+cgqdq5/HHH08GhBB3EangJbb/o1aWQwcLqZJtBEj0QiHTZpZTd+kkvDDKGeUxYcIES7CDi44segl0uWFXKGqqWr/7r1ixwmLFoTluYY24F9TTxG5VsosAeRz0OcBqTtsD46pz8NJRj9+zZ09xwIpU8KDEQ5l0fM5vdZT0xg+h7P0eZY/rnkMlSTubN28OTMqC9UAcl7bC3377rdl1113t39L2rd+qMA+SApOsKealSB0zh6I4BSsPjyB17hAQqWQbAUdug35IsxwN5c5zA/uj5FCcWAUPWT+WURrisqJLu21xDWF5qBQmArDfQauK+54eBCRWvvPOO1ZpI86yx53NzzvttJMtxYPmFAVy1VVX2ZhgVuLubhUZM1YRcc0kJepn3K2Lc9uyLpdffrntF562KzdJXAv5XnQ9xOuDR1WCEGKC1Oqpp56SMJxfjUGsgmcRWUxnzafljvFmS+IWgl+cF7lKYSPAyZw/WPQoesiOyN6l6yEHAax0GpMQdyOBj34F7FnplLRlrRrK75prrjG33nproos6dOhQW3EQJiRS0QCdgifcwFxIxlKrPdEljfVmgwcPtomsznp3VnSsN63g4jzr/MHow/iTKGIVPNn09PmlbA43m1+2ZFQviYoWidNaw4YNLTvZdtttJ3E9dUwJIIByp7ENvO3sA5TUsGHDrKKSwtQWBgbGzMEFoo4kJUiujdfyLusZd7/npc+zSR8CSiKlvnCTxLeQ7kVVSvPmzUv0AXNL2yuDPoDCHC/fLrvsIhJusQqekxEPKvWqErIlWT0seF7ucNMfeeSRIhdUB5U8AriaYUTLWuzdIQV/PjS1VAEkKZAQoYgrOpyXPth7wySMlXcDlMBUL8BIRx5E2i/+JDEslnuRFEvOBvshLW+uF2v2IR4+kmvHjRtn+S8kilgFD1jQfRIbTDuhwi2cc8mQtEPWpISNJnFTFduYaGrDgW/JkiWZnPqBBx5oD63bb799ouPnJelK2Mq7MS/0bt26GZqL8ELlO7xMacsJqQjldjvssEOi49abJYsAhhUJziTDStMFAwcONH/+85+TBSTE3UQreB5qKCU5kaNM0z6Zu1MbVsecOXNiZ/0KsY760RQRYF9Ae0oplmO2ci7EJEJHuU7dPU+0SX3kkUcMlnzSgmuTMsXySG94oVPd0Lhx46SHpvcTgsD69eutd4YcFwneXPYqxh7POuyPkjuNilbw7C9emlOnThXBWsR4nBU/ZswYy8ilogg4BMhCv/TSS813332XCVBctchNN91krr322lTGjNv1tddeK9dNzxjJUCYTXqU4EYBBlBpzDnu50MpGjRoKHq8CTaWmTJkS9eUjvZ54BU/ZEskVEmgJHfK4CnERLl68ONLF0ItlH4H+/fvb3ue8AKSLe1lSi54Wu9t5551nOCwjZXk7GCMHJ0J1KsWJAPTCJLVSGpd25rzXyCPZulmzZqIXRbyCBz1X+yjBPcN4XLIdncO6dOkieoF1cMkiAJUmXidH4CK5Jh6LCPfiunXrkgXJczeaz9x7773luuhR8JRHXXHFFamNUW+cHgIksJ111lnikuuywomSCQV/8cUX2w5UUqx4xz9MYtXEiRNNlSpV0nsC9M7iECBmyEvplVdeEU16g4KnVK1jx46pYUh5IWGNiiz4P/3pT7aaRqW4EKApVIcOHSyttJR3v8vDglHv/vvvF78gmVDw48ePt/FuCfzDbkVx02Nd0DADxiwVRcCLwNq1a22MDkY8qUL2/MKFC305JuIcPwRCxNfLIwjiGSNTnjp9leJCYO7cuZZACoMK760EcTqIpkUkp0qXTCh4SG9ox0fGooRsehbVWfFYH3fddZf0ddbxpYAAteVY8ihRRIK73sXd+fsvf/mL6devXwrI/HJLDsitWrUql0OAJDte8nFz1qcKgt68TAQgkCKfRUppnEuuoyyTKqoskCllQsGz+lBpQhMrJQ7vFpuaXF7gNOtQUQRKIwCZy5lnnmk57iWUzDk6V8rTKD+DGCZN4UXprLSyxoGCJwGQg4BK8SBAW2c6/5HTIoV33rnnocvlcJwFyYyCB0yoQSlBQslLyKZ0VjyJdtQRS9mIWdh4xTRGuKrhrafqIm0lj4LnUErmOk0y0hYOPi1btrSc/+VR0RICw4JXYqm0VyuZ+0MB2717d8sQJ6U0jpkTlqW3wbx586xHOQuSKQXfrl07279biiJ1VjyZyNRDaq/pLGz5dMZITB7qZTgd0mxIg4InQeiee+5JnTiKlaBzH8mqGzduLHNhsOBhrINpT5NZ09m7Sd8VjyiVKC4k69eHJKnxcfAgr4ZnOCuSKQXvEnKwnNM+zTsPgiO+IYQwaNCgrKy7jjMFBPA+EfMmaZQOdElb8yhLrGHaMCfNO18e3DTqgOyGyoPyXPRwTqDglZI2hU2bwi0HDBhgXeCOdz5tby33R+fw/Dz99NPm5JNPTgGV3G6ZKQUP53fr1q3Nu+++KybZzsVl6tSpYxt2qCgCfgigrOgfjyVQnpLPV/k7Glr+dtciGx3Lfe+99/YbYmK/p8qAcdGCtzzZd999zfTp0y1ttUrhI1C3bl1D7oq0fKv99tvPsi5Wq1YtM4uQKQUPqn369LHEGJIyKzndYclTT4x1lDZnfmZ2X5EPlJcFFJz0m8f95yyV8njZw8DFHnSuTZ4V8kR4bshjkSS0g6ZN7SeffFLusEhghVMg7YRASbgV4ljY9+SF0JmRvcu+lfAudblWvXv3tgfkLEnmFLyjrmXhpdRGug1AjHDatGm2MYKKIhAEAepqUV5Y87Nnz7aJeC7sE+T75X2G54PmMRCFoNz5W6KQgEi711WrVpU5POZBn3cw2m233SROQccUEQJUVBx33HEGghspxDZMzTGXZoGatvRSZE7B///2zgPqiuJu4/MlMREBESkWqhrpiqioiEisKBo1QEClCBZEDQhIsBy7IXajUQQR1EhRigRUbIgoqEiionRLkKIUBQUEJXpyvu/8xjPkwvfel7v37r07u/vMOe95Kbs7M8/M7jP/zgS6detmxo4d640KhzHhYUnr16+fjd1UEwJBEIDUt23bZlavXm3GjBljM8xBfrSy6sw71XumCt4Vj+GgSQpYJI7KlSt745RaFh4ff/yxOeWUUwxOiNm86Bs0aGCmT59u6tSpEwRSXRszBMgpQmZDmvOej3oKzgTbtWtX+17GrcWS4HF0gORdNrmo1ThOpcpJDzshUhgFEtSEQCEI4HNCSA5lk9lTlFXlIEBIGb9RYyKl8wP5IelSVjUuITxgs3TpUqui52CTjeAlwReyi+JxLz4YzZs3t57zvtje3eEabQLkHseKhrEkeD50Z555piGVoVPTR0XymR6eHDj4OykMn3766Xi8WRplrBBwoZlI9c7LOKq9HwZwixYtsk52fNizETwHFjnZhYG2v88gGRTRJc706vZCVHvb9c83nciT559/3lSvXt1fALOMLJYEz1xQPw4dOtSqcjhhFep1HNbK4SxF4/Bx1FFHhfVYPUcIJBKBXYXJMWkXB1+lSpVEYpD2SaGlcvU8fJLenS8M+StwUI1jiy3BU+ISpxtOeL7kp2cDOIeMPn36WHuSL46AcdycGnPyEXCJbnCsynZIp+Y2FcUqVqyYfEBSNkMkZPyWhg8f7k1JWJbAacr4jfkorhEcsSV4FuG2224zN954ozcelxw2OPVB8rT58+cbknSoCQEhUDYCeCaTqtaFCZZ1FdLdrFmzvHYW1PrmhwAaHPxGaD5J7y4y6tZbbzU33HBDfpPz4K5YEzyOGdjncEbyJX0ta+pUO2xcnKPUhIAQKBsBQqOOPfbYrNK7is0ke+fgWIcg5FNeE/YcmoW99trLlnuOs8N0rAkeb+ILLrjAOmdkqumjcszIfBWdwx0FE3AgURMCQuD/I0CyH1LVZlPP8y4j4XOdWrIQwBGZHA3OWTTq2bEHGYvTwuIsTVGilCm5AAAgAElEQVQmolTi2mJN8IBO8RmK0PiSt9htBGeLx9EOD0wK0qgJASGwIwIcgAl5pWWL9//9739vD/FqyUGA0E8ioXCw8016d99ukk9RXCbOLfYEz2nr+OOPt1nAfFLTOycNJJBhw4aZ3r17x3mfaOxCoCgI3HLLLYYfWllSPAf3AQMGmHvuuaco/euh0SAwYsQIW9WQQ51PtnfQwB8EsxF+Hxw+4txiT/CAv2TJEmuL9yl9bWbyG8ZIxq6DDz44zntFYxcCoSNALv5HH300q4oegr/vvvtsZj61ZCBAhkayE9J8SknLeJxpFds7NRDi3hJB8CwCJ645c+Zs3zBRlxh0G8Ope6h5TRGFOFUiivvm1vj9R+C3v/2tmTZtWrk2+Mcee8z07NnT/8lohLtEAIdoinIR9ugLuTvNkdO6tmrVymqEk9ASQ/CjRo0yxJ6j8vGlChEbxIVb7LHHHjZ//jnnnJOEfaM5CIFQEKhbt+72SnLZVPQc3JU0KhS4I3/IlClTDHndv//+e2/yzWcKY2iMiMm/6KKLIscqjAEkhuA5GaKmX7dunVcbh48WfgIQPWopymOqCQEh8JPNHSmuLOc6hw8f3C1btpgKFSoIsgQgQF0BzJW+ONYBaWZaWkLiUM8nRdOaGIJnoVDlcfLyafO4d9LZds444wzDKZYPm5oQSDMCfEibNWtWbpppHGcJh1WLNwKYKtFeYo7xzVfKxb1D9GiCL7zwwniDnTH6RBE88zriiCPMvHnzvEpfm6mqp3wnYXN4/qsJgTQjQIWuHj16lEvwSbKHpnmt8UgnLA5tjDOh+pCvJPPbfPjhh5v33nsvUcuUOIKnlCxxszSf8sBnquopj/nyyy/b2H01IZBWBK677jpzxx13lEvwl1xyiSGkSi2+CGCCadeunXn11Ve9y1cCqmhXaRMnToxlSdjydkbiCJ6yk2SOmzlz5vb4Sl886hmH20xxz3Ec38+NRu4DArwLJ554ovWmztaQ8CjYROVItfgi4GqG+FYYLFN6J5simfVq1qwZX6DLGHniCJ45EuLQunVre1r0yaOejxqnWZzu0C4gxbOx1IRA2hAgkxkEv3DhwnIJ/s0337QhsGrxRABBC+kdwcZpVH1QzTvHOucA/dZbbyVynyWS4HkVyCM8YcIEm93OFwmecWWq6omNf+6550ylSpXi+fZq1EIgTwTwkyEG/osvvijzCZBA9erVrSauadOmefai26JEAHs7a4yWBkELgcsHcnffYcZC1rrOnTsnNhVyYgl+7ty5Nkf9xo0bvbLFu83lTrSor66++uoo30P1LQRKjgAHW3xlyvKQ58PLD8ROPvBatWqVfHzqsHAE7rzzTltqFSnZt6ghl9SGinHsMUoSJ7ElluC3bt1qEypMnTrVy7A5NhOnRxpe9YTPqQmBtCBw++23m+uvvz5rgRkInkIfOM3uvvvuaYElMfMkHA6veRrV2LJVC4xqwi4B2dlnn20TkFWsWDGqoRS138QSPKjhtXnKKafsUI7QJ3W9qxvfqFEja48nq5eaEEgDAmjX2PNlffghd9S5ONfdf//9aYAjUXNcuXKltbsvXbrUK9V85rff5SVhjCTfSWpLNMGzaM6D0yW/8YngncMdY7rpppvMzTffnNR9pnkJge0IbNu2zaAaRYNVHsHj1dypUychFzME+I5RIdB5zTN8H23vaYhkSjzBr1+/3uax/uyzz7wqS+gOGs4WxG8+aDgHqgmBJCMwbtw40717dzvFbDXgIQQkQdnf47UTxo8fb8OUM8ndN4JHej/ggANsLXocOZPcEk/wLN7gwYPN3Xff7a0t3tmD+Jjh8HHIIYckec9pbilHgCyOhCVly0EPOTRv3txmpFSLDwILFiywjs1ERviYLhwknVl02LBhtjhZ0lsqCH7Dhg2GNIRIBL6UKMzcWJlS/EknnWR9B9SEQBIRWLVqlWnZsqUtCgWRZ1PR33vvvWbAgAFJhCCxcyJD54wZM7zKNZ8JtiN3fJ3ef/99U61atZzXwifTbs6DxjTyv765NwYZfYBrX3jhBeup7lOhg2wk36tXL1s4R00IJA2Bp556yrC/s9nfmS8OdsuWLTP16tVL2vQTOx8KtDz++OPefl8B3jnWETpdpUqVxK5F5sRSQ/BMmg/LE0884aUUz/hcKltKY44cOdKcf/75qdiEmmR6EOjbt6956KGHypywi3+nYNT06dNT8xGO++rjU3HxxRfbGu9kq/PFoa4s6b1nz572IJKWliqCx0bUtm1bm/zGJV7wbTNSVhHbJM4fpPNUEwJJQqB27drlZq/jkHv55ZfbHPTYcdX8R6BGjRoGZ2Yfc807wYnvKpEbb7zxRqp8nFJF8Cy2C+Hw1QmEMTqSx9GIhBHyJPb/I6cR7hoBUkejlcIWWlZDNQ/B44ntKkLu+qm6IioE1qxZY9q3b28++OADb8kdbJztPY2hyKkjeBb8uOOOs168PjrcuZfV2Yvw9ESa8an0bVQfFPUbXwTYzyR0Wr58eVbveZerfO3atYkPX4rvSv40coQQopMeeeQR60/hzCu+zcuZPSk+RuGitLVUEjzV5iiC8M0333hLnC50jg0JwWO7VBMCcUWA8E+XujRbeBxatW7dulk/GTW/EcAJ+Morr7REj4Tsm6kzUzVftWpVW9QrjVUJU0nwOIOgKpwyZYpXqRR3fqUzSV756v3+4Gl02RFAwuvdu7cZPXq0VcFnC9wh5zzlYw866CDB6TEChPEiIJW3llEPP7M0N8IRhW9wXk5bSyXBu0VGRc/pk5KyvjZnj8c56ZVXXjGNGzf2dagalxAoEwFstYceeqh1xCqvUTeCPa7mLwJLliyx4cbZyvz6MnKnmse06Yp6+TK2Uo4j1QSP/WjgwIGG3Ni+lTN0m8CdkhnfMcccYyZNmhQoQUMpN5P6EgJlIYAfyYgRI8qtKMb+fvDBB1ORXSyuu4SEYR06dDBz5szxUiWfiSuCERohHDadaSiuuBcy7lQTPDb4s846yzpf8IHx1VGEBXYJerAjsWkJ+VATAr4jQLpZDqbOaXTn8bp3jqxivIcNGjTwfUqpHB+hxZ07d7ZhZr435zVPKVgEIl+Ft1LgmGqCB2AKDqBy4nSKOsfXlISMCy9jHJGuvfZaW0tbTQj4jACaMTKccSDNZq91nvOXXHKJIT+4mp8IXHrppd47P7pvNyp58ogQvpf2EOPUEzyv09ChQ23taV8TNez8yu+xxx42RAWiVxMCviLw4YcfmhNOOMFs2rSp3MIypA2l2qO0Un6uJM6RJB/697//7bVqPrOmx6xZs0ybNm38BLSEoxLBG2O2bt1qw3Pwqvc5Np594U6pv/rVrwwFOZB81ISAbwgQqUJlsV2pdNFIXXXVVdbLWc0/BHB6RDW/ZcsW7zMLOtU830SENuUOSVGxmV29OjiOYN/2XYrPNCHUrFlTnvW7Wlj9fyQIQNjXXXddVsndDWrfffc1hICSf17NLwQWL15sHdSowulMKX6N8L8CT6b0jjaofv36vg01kvFIgs+AnYQygwYNsskbfD/9OaJHAnr33Xdt+JyPySYi2dXqNFIEqPkAMXz++eflEjz7tWvXrubJJ5/U3o10xXbsnG/L0qVLzdFHH20LyLgUwlzl2zfG5VTgm432dfbs2Xbcaj8hIILfaSe4soe+q+oZNolweOGaNm1qP5KHHHKI9rUQiBwB8shPnjy5XMc6BokG6p///Kchx4OaPwisXr3adOrUyTog832B4H1tEDyqecZIQpv77rsv56H66lCd8wRyuFAEvxNISB1HHnmk+fLLL7dnucsBx0gucRuUDV6xYkX7QjZs2DCSsahTIcB+fOCBB6xNHWLgAFpW1jqn7sWHhHSnav4ggEMkzmmLFi2KRXgZe4zv3z777BPosEjYpguN9gf98Ecigi8DU+ob8+FxoXPhwx7eE90HlI1OtrCpU6eaOnXqhNeBniQEckSAGu5I75s3b7Z3ZEtJC8G3aNHC2t6xwav5gQBFfnr16mVIRetU8b6p5DORctnqCIn7+9//bouIldecQOSk/jTEx6eG4IOqY3AQuv3227cnmIFAfVdVsbk5fc+YMcOPL4ZGkSoEmjVrZm232crBOjDwG6GgDPZ3nwkkVYtnjDnxxBOtDdvnhF+ZB0f2Gd9l9tIFF1xQ7nJho2ffpW2/pYbgg76s5FrGDvXOO+94HzqXuenZyGTnIzUoNk41IVBsBDBnnXfeedtD4nZF8BR6Gjt2bLGHpefniADrRyKbZ599NjYk6ApxkWeB8OY999wz62zZjwh4aZDYdwZBBF/OS7Bq1SpTt25de+rj9Oe8SX0+BbqMYcQg88KqCYFiIkDWsP79+9u64K5lKwfL+0O0B7HV+++/fzGHpWfniADfCwSCl19+2d7h87fNTcmp5vE3wixUnkmSa/Er4ADgswY2x+UKfFnqCJ5sTFSPy3Ujk2bzoosuMt99910snDIcwfP75JNPNmPGjLFpG9WEQDEQQDqC3Mmq+O2332a1u7tD8qhRo0yPHj2KMRQ9MyACX331lS2bPXPmTG/j3MuaEg5yZD8cOXKk6dixY7mz5gDK9Tghp7GljuCJ6yQLXK52Jq7H4e7RRx/1unZ85uZ1zk38Js/+M888430WqjS+fEmZM2ahl156yR6EIY2ynOt430h3iuc8759atAhwMIMcp02btl1yz1XoiXLkrnz2FVdcYe6///5dqt2ZJ9rXtLbUEXy+C42377p162wCnDi8CMyTDy3q0ubNm9s4+SZNmsRm7Pmuk+6LDgEiOC6++GLz9ddfbw+TcwdpPJxff/316AannrcjwCEMEx7FWHyPc89cNpeK9rTTTjMvvviiVjQHBETwOYDEJXgH4/X7/vvvx8Lpzk3L2UMhd9T1SoaT44LrsrwQIIKDXOArVqzYfj8mIiRF8kuoRYsASWxI5kUonMtHEJbAsnPFwGxa0lz7y9QEQe5I74cffrh10GzUqFG0QMak91QTfNDQueHDhxtUQ5BmHCR5Nz+XcASHQYp/KE4+Jm9nTIdJDXhqcROJgnr0tdde22WMckynGqthQ+5oUjh8ue+X8zAPYyIuvry8ZzmNQS4kz3cr02GTAwmmoFNOOSWM4abiGakm+HxWmDrsQ4YM2R4fn88zorjHvXyktcU55aijjopiGOozJQi8/fbb1vHu3HPPNZdddllKZu3vNMlyiflk4cKFWR0h/R39TyPDmbN37967HGZQwW2XD4zxBSL4gIuHV2afPn3M448/blVccYqtdKfhSpUq2bAYkXzAxdflgRCgDDMOdXF6RwJNMCYXk+//1FNPteFi2bIL+j4VMuw99thjOQ1TBP9fmETwGTXWc9o9xlgnorZt29rT8K6K0uSiisq13zCuc3YywkzuuOMO6/msJgSEQDIRmDBhgo0CwkE4ruT+m9/8xkYC7b333slcpCLOSgSfJ7jUHCbOfNmyZTauPt8kCtkKcuQ5rF3e5uxavOyVK1e2oUsUB6lRo8Yu79UFQkAIxAMBPOWprDZs2DAruce1HXjggWbOnDmBsnJKgpcEH8p+J4vSOeecY2smu+pZoTy4RA9xXq6Q/N1332123333EvWsboSAECgWAnyPeKdHjx69y7oAxRpDGM9F6CD6omXLloEehxk1Dk7QgSaV58WS4HcCLsjpj6x4vESEBcW5Qex4phIloBSicV5JjT3tCKxZs8b84Q9/sMTI9ynOjeRi3bt3D5QYiVA6lzUxznMPa+wi+BCQxPkD785dFdkIoauiPQITQ6tWreyB5YADDihaP3qwEBACxUEAcyFpgN96663idFCipxJaSbEs4vWDNJfYK82Z63bGSwQfZAdluRanO6T4yZMnh/C06B7Byfeggw6y6UTPPPPMvP0KopuBehYC6UMAv5rnn3/eDBw40PoExdWZzq1chw4dbGrwoE51QbSvadklIvgsK53PZqEWO6fnuL9ghNENHTrUdOvWTSSfli+B5hlLBCB30lD369fPFvuJc0PAaN26ta1JrxYOAiL4cHC0T9m8ebONN507d26IT43mUajsydp3zTXXyC4fzRKoVyFQLgLY22+//XZ7GM9WojdOEBKVRG33tFZ+K8ZaieB3gWoQSZ5r58+fbw477LBirFXJnwnJk/uZ9JDVqlUref/qUAgIgbIRcAVjSAucBHJnlnw7VSsj3B0vgg8XT/u0JUuW2PC5jz/+uAhPL+0jUZvts88+tjRjly5dStu5ehMCQuD/ITB+/HjTv39/s3bt2kSg06BBAyu5N27cOBHz8WkSIvgcVsPZ1INkpSM9ZLt27cw333yTQw/+X0JSHDQTZMaidK6aEBACpUUAG/ugQYPMU089FXt7u0OuatWqNm120Fj30iIf395E8DmuXRBVvXvkTTfdZO655x7z3Xff5diL35dxwCFt5AMPPCBVmt9LpdElDAHSYg8YMMBW5kuKSn6PPfawB5ZbbrklYavlz3RE8EVei7/+9a+2qlZSSB646tWrZwYPHmzz2FNMRE0ICIHiIECymlGjRtlMk8uXLy9OJxE8FXLHQRDv/yAtH0EryPOTdq0IvgQriiR/5513xj6zVCZUSPNU1bv11lutA14Q80UJIFcXQiDWCEBkGzZsMHw7yCcf99DbzMVAKLj66qvzktw58EioyH1ri+Bzx6qgK3FSu+GGG8yWLVsKeo5PN0PqzZs3tx8hnArVhIAQCAeBZ5991r5XH374YaLInRwbt912m3USVCs+AiL44mO8vQc2Ni9tkk7jTA6i79mzp8EcwQusJgSEQH4IfPHFFzaXxtKlSxNja3dI8J3A3o6go1YaBETwpcF5ey843aHWjnvWqZ1h4+U99thjrW2+ffv25he/+EWJkVV3QiC+CFAk5cUXXzRDhgwxROAkxZHOrQhRODfeeKN1qlMrHQIi+NJhbXvixSXXO0SYxEZlunPPPdc8/PDDpkKFCkmcouYkBEJFYNu2bbYC3NixYw1/TmK76667zFVXXaXU1yVeXBF8iQF33f3pT3+yjndJsslnquKaNm1q+vbta8l+zz33jAhldSsE/EWA1NZPP/20efDBB82iRYsSZ7oDeUx2ONRdf/31/i5Egkcmgo9wcXG8Y/P/8MMPEY6ieF27OvNI87Vr1y5eR3qyEIgZAp9//rmV2knyklSp/Ze//KUVYuRQF93mFMFHh73tGbsUKvskxclnQoptnmxV2BY7depkqlevHjHi6l4IRIfA+vXrbVlpcmOQ5TJpDrcOWeLcUcnjb6QWHQIi+Oiw395zEpPh7AwrTndHH320fel/97vfeYC6hiAESovA1KlTbcIaqk3iVJfUlm8Sm6TiEeW8RPBRop/RdxKT4ZQF7c9//nNL8Hzo6tatK6cbT/afhlEcBHCqXbVqlfUeR3JPmnf8zqgVksSmOCuQ7qeK4D1a/yQmw8kGb506dUzXrl3NpZdeaurXr+/RKmgoQiAcBHCcGzNmjBk3bpxZuXJlOA/1+Cn5JrFR+tniLaoIvnjY5vXkxYsXm0MPPdT85z//yev+uN1EmlsONuedd55BulcTAnFHgHd3xIgRtjgMqVXT0Hh3iQjAzyZIQ6OBuQKHPLXwERDBh49pwU+cN2+eOf/88202qzQ0HPHatGljunXrZs4++2xTs2bNNExbc0wYAnjDT5o0yTz66KNm9uzZiXWg23nZGjVqZLUULVq0CLSiHH4geOXLCARboItF8IHgKs3FqKzIQR30hSnN6IrXC6f4WrVqmeHDh9t0nWpCIC4IzJgxw1x++eVmxYoVqZHa3dogkFCTIkjBKaR2fgilVSseAiL44mFb8JNR15O3ecqUKYl3zskEC3XfGWecYavVUX9eJ/yCt5IeUAQEkNipz/7II4+Y559/PlXv6M9+9jNbYIr6Gk2aNAmMLuSudNaBYQt8gwg+MGSlvYFY2c6dO5tXX321tB1H3BvSQMWKFU2DBg3MzTffbPPby0Yf8aKoe4sANvbp06fbwzdmtK1bt6ZGHe+2wMknn2wmTJhgc1yo+YuACN7ftdlhZNddd5154IEHEpsQp7xlQFpo27atzfrXsmVLs/fee8dk1TTMJCHAYZtCMORVf/3111PjCJu5hsS44yeDzV3NfwRE8P6vkR0hDilPPvmk6d27d0xGHO4wkeiJsT3iiCOsRgOHPBF9uBjraWUjALET7jZ+/Hjz3nvvJTa1bC7rT3RAjx497LsYpCkULgha4V0rgg8Py5I86ZNPPjGnn366+de//lWS/nzsBLLHGY80v2eddZZNfyv1vY8rFd8xoYbfsGGDTU5DmmXqtCc1rWwuq7TXXnsZMm527949l8t3uOb777+3YXB6RwNDV/ANIviCISz9A0h1SS7rmTNnlr5zz3o88MADrcd9ly5dTOvWrc1uu+3m2Qg1nDgh8OOPP5q3337bSuuvvPJKqg/Sbt1IREWMO6mm82lgqvcyH+QKv0cEXziGkTwBlX3Pnj3thyjNkoUDH6ke+/yf//xn63kvaSGSbRnLTonF5genMfw8Vq9enSqP+PIWjXLPTzzxRGCVfCw3QgIHLYKP8aKiQpw4caKV5jdu3BjjmYQ3dIidTICE8GCvJ9xOTQhkQ+C5556zvi3/+Mc/DCVck54rPtedgEoef5/Bgwcbsk0GaWCI0KFDdhDUinOtCL44uJb0qS+99JJ1PPv2229L2q/PnSHR4/FLVjzU99dff70Nu1MTAsRgDxs2zPzlL38x69atS2VkSnm7AHs5+Fx44YV5bxY51eUNXag3iuBDhTO6h+F8d9lll5lZs2YZbF5q/0UAsidjFrG7JM8h69b+++8fKPOW8IwvApizIHISR7388svWnszfZdracU2xk/NuEAJ38MEHB15wDk5I7UEy2gXuRDcEQkAEHwguvy9Ggr/kkkusXV6tbAQqV65s9ttvP2unpzDGYYcdZmrUqCG4EojAV199ZePVH3zwQbNmzRqzdu1as2XLlgTONJwpoenCUz7fWhCo5slZoeYPAiJ4f9YitJFgl7/yyivtR02tbASQMpDgSIOLrZHY3n333df+6CMVz10DwUDi/EybNs1K6h999FEqE9IEWcEqVapYWzvJtPJpIvZ8UCvNPSL40uBc0l5Q0aOOxC7/8ccfl7TvOHYG2SPZEw7UsGFDc9ppp9kUuccdd1wcp5O6MW/evNngLEdY2wcffGALvmzatCl1OOQzYfb5yJEjzTHHHJN3KJsIPh/kS3OPCL40OEfSyw8//GAGDhxoRo0alersW0HBR4LHlti0aVPTsWNHG2cP8VeqVEmewUHBDPl6yARTFD9UcCMRDcTOXpcHfO5g45OC1grzRT612NF+gXnQjHa5j1BXhoGACD4MFD1/xjPPPGO9yNNSXz6s5XDOQjgfIeEccsgh5qijjrLSPaF4eOmrFR8BnLcWLVpkSygTzrZgwQL796+//lqOcnnAT+ZHSjLjdIp6PmhTJbigiEV3vQg+OuxL2jMxvn379jVTp07VR7FA5J1XPp7GF1xwgenXr5+12/Pv8iAuDFwkQ36Qxt988027Xx9//HGDGl5e74Vhy97Ex4RDUu3atQt7mO6OBQIi+FgsU3iDpH4znrLr168P76EpfZIjc9SUhBfhkd+oUSPTuHFj+wFF0leKzvI3B2peQjw5gKJhQjLHfwRpnTKsNBF74S8YUjsHUUrc5ttYK2q4ywk1XwRLf58IvvSYR9ojkhGqzRNOOMEsXLgw0rEksXNIH8987Jr8hvjB+vjjj7epdNOe3Qv1LhIk0jkhbPPmzTMUI4E8iFeXHT38t6JZs2a2bgXVF/MlZ6nlw1+XUjxRBF8KlD3sg4/qPffcI2m+RGsD8fNxxVsf6f7MM880TZo0sR9d1KYu6x4pQuN6CKACG6VV0Q599tlnNkMccedLliyxRVuQzInqgCxcmGKJ4E9lN05qHzRokD1s5tM4cMn0lA9yftwjgvdjHSIbBarQq666ynokq5UeAbyZcXRC4of8SafLhxl1f506dSzx80PmParlRd1Ql2MPR60OWfPnZcuWWUmc0DTU6pA6JI9EDumrlR6Bk046ydx7771Wg5RvY/3kJZ8ven7cJ4L3Yx0iHwX2OWKJV65cKTVp5Kthtku4O0tPHAYgfuz7HAawiXIAQAvAwQCNAP/OwYH/y6VBwnzMIWvMNxQxIlkMEjg5FRyJUxMdCZ3mnOGcH4Ls5LkgXfxryNJIhkb8bPJtbi3lMJovgv7cJ4L3Zy0iHwkS2V133WXj5tX8RqA8FXc+6u+wn+c3eskcHeWj+/fvX5DUrtrtydobIvhkrWcosxk9erS58cYbzfLly0N5nh4iBIRA8RAgA+Ott95qunfvnncnmRoYSe55w+jdjSJ475bEjwERrjR27Fib6UoFOvxYE41CCDgEIGFMMeS26Nq1q826mG/DkY6fXE06+faj+0qPgAi+9JjHqkc8nynG8vbbbyseOVYrp8EmFQGiMVq1amVGjBhhIzEKafhfxDVqo5B5p+VeEXxaVrqAeW7bts0WpMA+v2rVqgKepFuFgBDIBwEk9oMOOsicccYZNpESGRRxpCykoZaXOr4QBP2/VwTv/xp5M0K8qwm94YfEJGpCQAgUHwEkdvIm4BlPBEW+yWrcSHl38ykwU/yZqoewERDBh41oCp5HDPTdd99t621T1UtNCAiB8BGoUaOGzX1ArfYjjzyy4LTHqOM5HGBvl1o+/PXy8YkieB9XJQZjIhPep59+aoYMGWKmTJliJXrFQsdg4TRE7xGAhNu1a2fIQEf1QpzpClWluxTAhUr/3oOnAe6AgAg+xRuClz6MF5684oTpkJ50xYoVNjmKmhAQAsEQIGscJYl79epliGkPoxwxaYGR1gs9IASbia72BQERvC8rEcE4wswzjfqPfONz5swxDz/8sHnvvfeUpjSCNVWX8UOA8DQkdZbo4rkAAAoWSURBVELe2rRpY9MSh0HILttgGIf4+KGqEYOACF77wBb/CDMGFrs8MfT333+/lerlkKdNJgR2RAACxwsez/g//vGPNr1sGBK7cBYCmQiI4LUftiPAiR8yDqPABNqB1atXm2nTplmynzt3rohee00IGGOJnPLBJKg59dRTbQ2BsKRshb5pi4ngtQfKRSAs27zrBIe8SZMmmWuuucYWMVHNb23ANCKAlqxly5bm2muvtcQexkE6jThqzrkjIAk+d6xSdSVqe6SKMCULKpFNnTrVTJw40drov/rqK3nep2pXpW+yqOJr1aplKN/avn17c/rpp5tKlSqFYmNPH5qacVAERPBBEUvZ9WSxwwt3t912C2XmqBCR6Ml1f99995np06fb8qRqQiBJCEDsNWvWtN7wFIE5+OCD7TsUhvNcknDSXIqLgAi+uPgm5ukQM57yYTrjUYN8/vz55m9/+5uZPXu2Wbp0qez0idkx6ZwIMeuHHnqoadu2renSpYstAhPW4TidiGrWhSAggi8EvZTdC8FjPw/7gwXRY5ufMWOGdcibNWuW9exXEwJxQaBKlSqW1Dt37mzV8UjvYZm34oKBxukfAiJ4/9bE+xEV01OXELs33njDjBs3znrer1y5UmTv/Y5I3wBRtXPQPeCAA6xdnSIwxx57rELd0rcVvJ6xCN7r5fF/cMVIgckBAgkelf1bb71lnfLeeecd89133/kPiEaYaAQg9j333NOSObHr/P71r3+tbHGJXvX4Tk4EH9+182bkOOLx4aNCVTGciDZu3GgWLFhgHnroIVuXfv369Qa1vnLfe7MFEj0Ql5SmXr16tg77FVdcYVPKqiJbopc9EZMTwSdiGf2YhLPRY3ssRrUqSJ1c96juKXCDdA/Z06+aEAgbAVTwpI094YQTrBqedLL8XcQeNtJ6XrEQEMEXC9kUPxf1OmSMR3GxGqS+bNky89xzz5nRo0dbdT6aBDUhUAgCSOvsWxLSUPQFNTwJaeQwVwiqujcqBETwUSGfgn6dCr0YansHHz4AJND56KOPzLPPPms++OAD8+6775pNmzbJOS8FeyyMKSKp165d26rdsakjsTdo0MDgGV/MvRvG2PUMIVAeAiJ47Y+iI+Cc5sIOr9t54Ej1OOJR4IaQO9Ljfvjhh2br1q1Fn6M6iBcCEHflypVNixYtTJ8+fexvSJ4CMMUwL8ULHY02KQiI4JOykjGYB4VsMkm+mNIRkj0hd59//rmZPHmyleznzZtnvvzyS5tJT/nwY7BhQhwiCZoo8kJYW8OGDW2sOj/77LOPVckXcy+GOA09SggEQkAEHwguXRwWAtjpkZRK8WGlL+zzX3zxhU2R+/7775sXX3zR2u0VehfWivr3HCelk1muQ4cO5rDDDrMhbXvvvbckdf+WSyMqAgIi+CKAqkfmjsCPP/5oib6UTkyo8gm9Q5VPOdvXXnvNrFmzxkr3qPOVRS/39fPlSsgcKb1q1apmv/32M82aNbMlWbGpI7GXeo/5govGkW4ERPDpXn9vZo+dHrLnI11KskdVj0Me5E79euLsSaqzZMkS+3fU+Wp+IuA83ps0aWIOPPBAq3JHWofgqbGOPb0UGiI/0dGohIAxInjtAq8QcA55TiIr9eDoH9JHdU8hHMLwSLLz6aefWikfPwIOIrLhl3ZlkMAh7AoVKli7OVJ5mzZtzMknn2zq169v7eulPBiWdvbqTQjkh4AIPj/cdFcJEHBhdi73famlMdf/li1brOp+4cKFZvny5eaTTz6xTnvr1q2zufJx5pNaP7wN4bIiIoXXrVvX/jRu3Hh7ohm83ampXqzMieHNRE8SAtEiIIKPFn/1niMCSM144Bez0E2OQ7GXYcdHml+1apX5+uuvrac+qn3i8YnLd4SvdLrlo+oObZB1jRo1zIknnmjJvF27djaMrU6dOnbdJZ0H2Z26Vgj8hIAIXjshVgi4uvSobPmzLx9+p7J3tnwn6ROmRylcsu5xIEDiJ8sff04L+bNWZIPba6+9rG2cBDKQOGp1kstA7E5Sd8llSq2tyfYSsK6MxZfxxOpl1WAjR0AEH/kSaACFIOBs5j4mJ3FSvAvTgywI04MsIP7XX3/d2vr58+LFi62qP+5he9jJydeOFzs10SH00047zTpP8mfs56wVtnQa/+5jK2UYp4/z15iSgYAIPhnrmPpZQPROoodIfZHssy2MGy//75z6UPfTcO5Dyofs+TekfggHMwWe/e76bM/mEBG0VatWzey7775Zb3Pk7C6gZGrbtm2tZG5Vgf/zP6Zjx47mhRdesGp2iN61OEi/bs9gemHvxGHMQddY16cPARF8+tY88TN2alXU4HF3xGIOmR77SPn8nX93xMrvzLz/aASCNpzWUKFn83Fw/++e6yoHFjv9cNB5BLneRWw4LYJIPQh6ujYOCIjg47BKGmNBCECISL9Im3GQ7guarG7OioBb+yiSK2lZhEAUCIjgo0BdfUaGgFPBMgCkYKdijmxA6rjoCDjtBgTvo69G0QFQB6lFQASf2qXXxEHAhd/J9qr9IASEQNIQEMEnbUU1n7wRyJTunRpXEl/ecJbkRh3MSgKzOokpAiL4mC6chl0aBFwYHp7VPsXdl2b2/vXiHCiJKsA5To5x/q2RRuQPAiJ4f9ZCI4kBAoSvOc9xyMV5nYv8w1s8R+IO28yoiMzwu/B6zO9J7IX169ebWrVq5fcA3SUEioyACL7IAOvx6UGAfPVkZ+PDT3ie77H4vqwMBA5mODyCISlq1YSAECgcARF84RjqCUKgTARcWl1Uydu2bbPJX+KWkCespYXE+QELEvhwEHIOjmH1oecIASGwIwIieO0IIVBCBDIT0mQmlXEHAIYCEfJ/SXLw8zmlMJiDP3jHOXFPCbexuooJAiL4mCyUhpleBCAfWqb9GcJEnY0pgB81ISAEhMDOCIjgtSeEgBAQAkJACCQQARF8AhdVUxICQkAICAEhIILXHhACQkAICAEhkEAERPAJXFRNSQgIASEgBISACF57QAgIASEgBIRAAhEQwSdwUTUlISAEhIAQEAIieO0BISAEhIAQEAIJREAEn8BF1ZSEgBAQAkJACIjgtQeEgBAQAkJACCQQARF8AhdVUxICQkAICAEhIILXHhACQkAICAEhkEAERPAJXFRNSQgIASEgBISACF57QAgIASEgBIRAAhEQwSdwUTUlISAEhIAQEAIieO0BISAEhIAQEAIJREAEn8BF1ZSEgBAQAkJACIjgtQeEgBAQAkJACCQQARF8AhdVUxICQkAICAEhIILXHhACQkAICAEhkEAERPAJXFRNSQgIASEgBISACF57QAgIASEgBIRAAhEQwSdwUTUlISAEhIAQEAIieO0BISAEhIAQEAIJREAEn8BF1ZSEgBAQAkJACIjgtQeEgBAQAkJACCQQARF8AhdVUxICQkAICAEh8H/b7oECzd/V8AAAAABJRU5ErkJggg==;" parent="1" vertex="1">
                    <mxGeometry x="680" y="420" width="58.15" height="60" as="geometry"/>
                </mxCell>
                <mxCell id="3" value="" style="endArrow=classic;html=1;exitX=0.501;exitY=0.858;exitDx=0;exitDy=0;exitPerimeter=0;entryX=0.5;entryY=0;entryDx=0;entryDy=0;" parent="1" source="jMJHukQKIrS0qzISfSz--4" target="jMJHukQKIrS0qzISfSz--2" edge="1">
                    <mxGeometry width="50" height="50" relative="1" as="geometry">
                        <mxPoint x="440" y="340" as="sourcePoint"/>
                        <mxPoint x="490" y="290" as="targetPoint"/>
                    </mxGeometry>
                </mxCell>
            </root>
        </mxGraphModel>
    </diagram>
</mxfile>